<svg width="65" height="65" viewBox="0 0 65 65" fill="none" xmlns="http://www.w3.org/2000/svg">
<rect width="65" height="65" rx="32.5" fill="#863AC1"/>
<path d="M25.2812 13.0488L16 22.3301L19.8994 26.2295L20.2861 25.8428C21.1885 24.9404 21.6719 23.8555 21.7363 22.5879C21.8008 21.3203 21.4248 20.1924 20.6084 19.2041L22.1553 17.6572C22.499 17.915 22.8481 18.1299 23.2026 18.3018C23.5571 18.4736 23.9277 18.6025 24.3145 18.6885L24.5078 17.6572C24.207 17.5928 23.917 17.5015 23.6377 17.3833C23.3584 17.2651 23.1113 17.1201 22.8965 16.9482L25.2812 14.5312L26.9893 16.2393L27.6982 15.5303L25.2812 13.0488ZM19.835 24.6826L17.418 22.2656L19.835 19.8809C20.3936 20.5898 20.6729 21.3955 20.6729 22.2979C20.6729 23.2002 20.3936 23.9951 19.835 24.6826ZM33.4668 22.7812L34.4014 22.459L34.7236 23.3936L33.7891 23.7158L33.4668 22.7812ZM37.4951 13.1777L25.0879 17.335L27.8916 25.6494L28.8584 25.3271L27.8271 22.1367C28.9014 21.6641 29.7017 20.9014 30.228 19.8486C30.7544 18.7959 30.8887 17.7002 30.6309 16.5615L32.6934 15.8525C33.123 16.7549 33.7461 17.4639 34.5625 17.9795C35.3789 18.4951 36.2705 18.7529 37.2373 18.7529C37.4092 18.7529 37.5864 18.7422 37.769 18.7207C37.9517 18.6992 38.1182 18.667 38.2686 18.624L40.6211 25.6494L41.5879 25.3271L37.4951 13.1777ZM27.5049 21.1699L26.4092 17.9795L29.6318 16.9482C29.8037 17.7861 29.6855 18.6079 29.2773 19.4136C28.8691 20.2192 28.2783 20.8047 27.5049 21.1699ZM33.6602 15.5947L36.8506 14.5312L37.8818 17.7217C37.0439 17.8936 36.2275 17.7754 35.4326 17.3672C34.6377 16.959 34.0469 16.3682 33.6602 15.5947ZM34.7236 24.167C34.3799 24.2529 34.0791 24.3872 33.8213 24.5698C33.5635 24.7524 33.3164 24.9404 33.0801 25.1338L33.7891 25.8428C33.9609 25.6924 34.1543 25.5474 34.3691 25.4077C34.584 25.2681 34.8096 25.1553 35.0459 25.0693C35.583 24.876 36.1255 24.8438 36.6733 24.9727C37.2212 25.1016 37.624 25.3486 37.8818 25.7139L38.752 25.1338C38.3867 24.6182 37.8228 24.2637 37.0601 24.0703C36.2974 23.877 35.5186 23.9092 34.7236 24.167ZM36.7861 29.1621H37.8174V30.1934H36.7861V29.1621ZM28.4717 29.1621H29.5029V30.1934H28.4717V29.1621ZM26.4092 29.1621H27.4404V30.1934H26.4092V29.1621ZM22.252 29.1621H23.2832V30.1934H22.252V29.1621ZM34.7236 29.1621H35.7549V30.1934H34.7236V29.1621ZM24.3145 29.1621H25.3457V30.1934H24.3145V29.1621ZM32.6289 29.1621H33.6602V30.1934H32.6289V29.1621ZM42.9736 29.1621H44.0049V30.1934H42.9736V29.1621ZM38.8809 29.1621H39.9121V30.1934H38.8809V29.1621ZM40.8789 29.1621H41.9102V30.1934H40.8789V29.1621ZM30.5664 29.1621H31.5977V30.1934H30.5664V29.1621ZM22.252 42.9229H23.2832V43.9541H22.252V42.9229ZM42.9736 42.9229H44.0049V43.9541H42.9736V42.9229ZM40.8789 42.9229H41.9102V43.9541H40.8789V42.9229ZM38.8809 42.9229H39.9121V43.9541H38.8809V42.9229ZM34.7236 42.9229H35.7549V43.9541H34.7236V42.9229ZM36.7861 42.9229H37.8174V43.9541H36.7861V42.9229ZM24.3145 42.9229H25.3457V43.9541H24.3145V42.9229ZM32.6289 42.9229H33.6602V43.9541H32.6289V42.9229ZM28.4717 42.9229H29.5029V43.9541H28.4717V42.9229ZM26.4092 42.9229H27.4404V43.9541H26.4092V42.9229ZM30.5664 42.9229H31.5977V43.9541H30.5664V42.9229ZM45.5518 32.6104V27.0674H19.6416V46.0488H45.5518V40.8604H47.6465V32.6104H45.5518ZM44.5205 45.0176H20.6729V43.9541H21.1885V42.9229H20.6729V30.1934H21.1885V29.1621H20.6729V28.1309H44.5205V32.6104H39.0098C37.8711 32.6104 36.8936 33.0186 36.0771 33.835C35.2607 34.6514 34.8525 35.6289 34.8525 36.7676C34.8525 37.9062 35.2607 38.8838 36.0771 39.7002C36.8936 40.5166 37.8711 40.9248 39.0098 40.9248H44.5205V45.0176ZM46.583 39.8936H39.0098C38.1504 39.8936 37.4146 39.5928 36.8022 38.9912C36.1899 38.3896 35.8838 37.6484 35.8838 36.7676C35.8838 35.8867 36.1846 35.1455 36.7861 34.5439C37.3877 33.9424 38.1289 33.6416 39.0098 33.6416H46.583V39.8936ZM47.7593 14.5151C47.7593 14.5151 47.5525 14.303 47.1389 13.8787C46.7253 13.4543 45.917 13.2422 44.7139 13.2422C43.5107 13.2422 42.4956 13.6665 41.6685 14.5151C40.8413 15.3638 40.4277 16.3682 40.4277 17.5283C40.4277 18.71 40.8521 19.7197 41.7007 20.5576C42.5493 21.3955 43.5537 21.8145 44.7139 21.8145C45.917 21.8145 46.9321 21.3955 47.7593 20.5576C48.5864 19.7197 49 18.71 49 17.5283C49 16.3682 48.5864 15.3638 47.7593 14.5151ZM47.0181 19.897C47.0181 19.897 46.8596 20.0554 46.5427 20.3723C46.2258 20.6892 45.6162 20.8477 44.7139 20.8477C43.8115 20.8477 43.0327 20.52 42.3774 19.8647C41.7222 19.2095 41.3945 18.4307 41.3945 17.5283C41.3945 16.626 41.7222 15.8472 42.3774 15.1919C43.0327 14.5366 43.8115 14.209 44.7139 14.209C45.6162 14.209 46.395 14.5366 47.0503 15.1919C47.7056 15.8472 48.0332 16.626 48.0332 17.5283C47.9902 18.4736 47.6519 19.2632 47.0181 19.897ZM46.0674 17.8506C46.0674 17.8291 46.0566 17.8022 46.0352 17.77C46.0137 17.7378 45.9814 17.7002 45.9385 17.6572C45.9385 17.6357 45.9277 17.6089 45.9062 17.5767C45.8848 17.5444 45.8525 17.5068 45.8096 17.4639C45.7881 17.4424 45.7612 17.4263 45.729 17.4155C45.6968 17.4048 45.6592 17.3779 45.6162 17.335C45.5947 17.3135 45.5625 17.2974 45.5195 17.2866C45.4766 17.2759 45.4229 17.2705 45.3584 17.2705C45.3369 17.2705 45.3047 17.2598 45.2617 17.2383C45.2188 17.2168 45.165 17.2061 45.1006 17.2061L45.2295 16.3037H45.3262L45.3584 16.3682C45.4014 16.3682 45.4282 16.3789 45.439 16.4004C45.4497 16.4219 45.4658 16.4326 45.4873 16.4326H45.584L45.6162 16.4971H45.6807H45.7773H45.8096L45.8418 16.4648L45.874 16.4326L46.0674 16.1748C46.0459 16.1318 46.0029 16.0835 45.9385 16.0298C45.874 15.9761 45.8096 15.9385 45.7451 15.917C45.6807 15.874 45.6162 15.8418 45.5518 15.8203C45.4873 15.7988 45.4014 15.7881 45.2939 15.7881L45.3584 15.2725H45.1006H45.0039L44.9717 15.3369L44.9395 15.3691L44.9072 15.4658V15.7236H44.6172L44.3916 15.7881C44.3271 15.8096 44.2627 15.8418 44.1982 15.8848C44.1338 15.9277 44.0693 15.9814 44.0049 16.0459L43.8438 16.207L43.7471 16.3682C43.7041 16.4326 43.6826 16.4971 43.6826 16.5615V16.7549V16.9805L43.7471 17.2061C43.7686 17.2705 43.8008 17.3242 43.8438 17.3672C43.8867 17.4102 43.9404 17.4424 44.0049 17.4639C44.0264 17.5068 44.0693 17.5444 44.1338 17.5767C44.1982 17.6089 44.2627 17.6357 44.3271 17.6572C44.3916 17.7002 44.4507 17.7271 44.5044 17.7378C44.5581 17.7485 44.6064 17.7646 44.6494 17.7861L44.585 18.6885C44.542 18.6885 44.5044 18.6777 44.4722 18.6562C44.4399 18.6348 44.4131 18.624 44.3916 18.624C44.3486 18.624 44.3164 18.6133 44.2949 18.5918L44.2627 18.5596C44.2197 18.5596 44.1929 18.5488 44.1821 18.5273C44.1714 18.5059 44.1553 18.4951 44.1338 18.4951H44.0371H44.0049H43.9082H43.876C43.833 18.4951 43.8115 18.5059 43.8115 18.5273V18.5596L43.4893 18.8818C43.5537 18.9463 43.6182 19 43.6826 19.043C43.7471 19.0859 43.833 19.1182 43.9404 19.1396C44.0264 19.1826 44.1069 19.2202 44.1821 19.2524C44.2573 19.2847 44.3486 19.3223 44.4561 19.3652L44.3916 19.8809H44.6494C44.6709 19.8809 44.6978 19.8755 44.73 19.8647C44.7622 19.854 44.7783 19.8379 44.7783 19.8164C44.7998 19.7734 44.8159 19.7466 44.8267 19.7358C44.8374 19.7251 44.8428 19.709 44.8428 19.6875V19.3652C44.9502 19.3652 45.0469 19.3491 45.1328 19.3169C45.2188 19.2847 45.2939 19.2471 45.3584 19.2041C45.4229 19.1826 45.4873 19.1504 45.5518 19.1074C45.6162 19.0645 45.6807 19.0107 45.7451 18.9463C45.8096 18.8818 45.8633 18.8174 45.9062 18.7529C45.9492 18.6885 45.9814 18.624 46.0029 18.5596C46.0459 18.4951 46.0674 18.4307 46.0674 18.3662V18.1084C46.1104 18.0869 46.1318 18.0493 46.1318 17.9956C46.1318 17.9419 46.1104 17.8936 46.0674 17.8506ZM44.7139 17.0127C44.6494 17.0127 44.5957 16.9966 44.5527 16.9644C44.5098 16.9321 44.4775 16.9053 44.4561 16.8838C44.4131 16.8408 44.3916 16.8086 44.3916 16.7871V16.626V16.5293V16.4971C44.3916 16.4541 44.4023 16.4272 44.4238 16.4165C44.4453 16.4058 44.4561 16.3896 44.4561 16.3682L44.4883 16.3359L44.585 16.3037H44.6816H44.7783L44.7139 17.0127ZM44.9717 18.6885L45.0361 17.8506C45.1006 17.8936 45.1543 17.9204 45.1973 17.9312C45.2402 17.9419 45.2725 17.958 45.2939 17.9795C45.3369 18.0225 45.3584 18.0547 45.3584 18.0762V18.1729C45.4014 18.3447 45.3906 18.4683 45.3262 18.5435C45.2617 18.6187 45.1436 18.667 44.9717 18.6885ZM38.8809 34.6729C38.3438 34.6729 37.8926 34.8608 37.5273 35.2368C37.1621 35.6128 36.9795 36.0586 36.9795 36.5742C36.9795 37.0898 37.1621 37.5303 37.5273 37.8955C37.8926 38.2607 38.3438 38.4434 38.8809 38.4434C39.3965 38.4434 39.8369 38.2607 40.2021 37.8955C40.5674 37.5303 40.75 37.0898 40.75 36.5742C40.75 36.0586 40.5674 35.6128 40.2021 35.2368C39.8369 34.8608 39.3965 34.6729 38.8809 34.6729ZM38.8809 37.4121C38.6445 37.4121 38.4404 37.3262 38.2686 37.1543C38.0967 36.9824 38.0107 36.7891 38.0107 36.5742C38.0107 36.3379 38.0967 36.1338 38.2686 35.9619C38.4404 35.79 38.6445 35.7041 38.8809 35.7041C39.0957 35.7041 39.2891 35.79 39.4609 35.9619C39.6328 36.1338 39.7188 36.3379 39.7188 36.5742C39.7188 36.7891 39.6328 36.9824 39.4609 37.1543C39.2891 37.3262 39.0957 37.4121 38.8809 37.4121Z" fill="white"/>
</svg>
