<svg width="16" height="16" viewBox="0 0 16 16" fill="none" xmlns="http://www.w3.org/2000/svg">
<path d="M10.3708 9.69847L10.0671 10.0181C10.0671 10.0181 9.34542 10.778 7.37541 8.70393C5.40541 6.62989 6.12714 5.87005 6.12714 5.87005L6.31835 5.66874C6.78938 5.17283 6.83379 4.37664 6.42283 3.7954L5.58217 2.60641C5.07352 1.887 4.09064 1.79197 3.50763 2.40576L2.46123 3.50742C2.17215 3.81177 1.97843 4.2063 2.00193 4.64396C2.06202 5.76364 2.54048 8.1727 5.21024 10.9835C8.04143 13.9642 10.6979 14.0826 11.7842 13.9754C12.1278 13.9415 12.4266 13.7562 12.6674 13.5027L13.6144 12.5056C14.2537 11.8326 14.0735 10.6788 13.2556 10.208L11.9819 9.47488C11.4448 9.16576 10.7905 9.25656 10.3708 9.69847Z" fill="black"/>
<path d="M8.84031 1.25338C8.88444 0.98079 9.14213 0.795874 9.41473 0.840006C9.4316 0.843236 9.48589 0.853383 9.51433 0.859718C9.57122 0.872386 9.65057 0.891892 9.74951 0.920709C9.94736 0.978338 10.2238 1.07327 10.5555 1.22536C11.2197 1.52987 12.1036 2.06254 13.0208 2.97974C13.938 3.89694 14.4706 4.78081 14.7751 5.445C14.9272 5.77674 15.0222 6.05314 15.0798 6.251C15.1086 6.34993 15.1281 6.42929 15.1408 6.48617C15.1471 6.51462 15.1518 6.53746 15.155 6.55433L15.1588 6.57513C15.203 6.84772 15.0197 7.11607 14.7471 7.1602C14.4753 7.2042 14.2192 7.02018 14.174 6.74887C14.1726 6.74158 14.1688 6.72201 14.1647 6.70355C14.1565 6.66663 14.1422 6.60808 14.1197 6.53065C14.0746 6.37575 13.9962 6.14553 13.8661 5.86175C13.6062 5.29488 13.1389 4.51209 12.3137 3.68684C11.4884 2.8616 10.7056 2.39427 10.1388 2.13439C9.85497 2.00428 9.62475 1.92593 9.46986 1.88081C9.39243 1.85826 9.2951 1.83592 9.25817 1.82769C8.98686 1.78248 8.7963 1.5252 8.84031 1.25338Z" fill="black"/>
<path fill-rule="evenodd" clip-rule="evenodd" d="M8.99114 3.55303C9.067 3.28751 9.34375 3.13376 9.60926 3.20963L9.4719 3.69039C9.60926 3.20963 9.60926 3.20963 9.60926 3.20963L9.61022 3.2099L9.61125 3.2102L9.61347 3.21085L9.61864 3.21239L9.63183 3.2165C9.64188 3.21971 9.65443 3.2239 9.6694 3.22921C9.69934 3.23983 9.73891 3.25494 9.78745 3.27575C9.88457 3.31737 10.0173 3.38165 10.1803 3.47812C10.5066 3.67125 10.9521 3.99203 11.4754 4.51535C11.9987 5.03866 12.3195 5.48412 12.5126 5.81043C12.6091 5.97343 12.6733 6.10614 12.715 6.20327C12.7358 6.2518 12.7509 6.29138 12.7615 6.32132C12.7668 6.33629 12.771 6.34884 12.7742 6.35889L12.7783 6.37208L12.7799 6.37725L12.7805 6.37947L12.7808 6.38049C12.7808 6.38049 12.7811 6.38145 12.3003 6.51881L12.7811 6.38145C12.857 6.64697 12.7032 6.92371 12.4377 6.99958C12.1744 7.07479 11.9001 6.92429 11.8215 6.66291L11.8191 6.65573C11.8155 6.64571 11.8082 6.62599 11.7958 6.59719C11.7712 6.53963 11.7264 6.44548 11.652 6.31975C11.5034 6.06859 11.2349 5.68909 10.7683 5.22245C10.3016 4.75582 9.92213 4.48735 9.67097 4.3387C9.54524 4.26429 9.45109 4.21956 9.39353 4.19489C9.36473 4.18255 9.34501 4.17519 9.33499 4.17164L9.3278 4.16917C9.06643 4.09059 8.91592 3.81629 8.99114 3.55303Z" fill="black"/>
</svg>
