<svg width="65" height="65" viewBox="0 0 65 65" fill="none" xmlns="http://www.w3.org/2000/svg">
<rect x="0.5" y="0.5" width="64" height="64" rx="32" fill="white"/>
<rect x="0.5" y="0.5" width="64" height="64" rx="32" stroke="#E1D7E9"/>
<path d="M44.2949 29.1641C44.2949 27.5312 43.9834 25.9951 43.3604 24.5557C42.7373 23.1162 41.894 21.8647 40.8306 20.8013C39.7671 19.7378 38.5156 18.8945 37.0762 18.2715C35.6582 17.6484 34.1328 17.3369 32.5 17.3369C30.8672 17.3369 29.3418 17.6484 27.9238 18.2715C26.4844 18.8945 25.2329 19.7378 24.1694 20.8013C23.106 21.8647 22.2627 23.1162 21.6396 24.5557C21.0166 25.9736 20.7051 27.499 20.7051 29.1318V29.1641C19.3945 29.2285 18.2827 29.7441 17.3696 30.7109C16.4565 31.6777 16 32.8164 16 34.127V34.7393C16 36.1143 16.4888 37.2905 17.4663 38.2681C18.4438 39.2456 19.6201 39.7344 20.9951 39.7344H21.2852L23.3799 43.0537C24.1104 44.2354 25.0664 45.1592 26.248 45.8252C27.4297 46.4912 28.7188 46.8242 30.1152 46.8242H30.5342C30.6631 47.3184 30.937 47.7319 31.356 48.0649C31.7749 48.3979 32.2529 48.5645 32.79 48.5645C33.4346 48.5645 33.9878 48.3335 34.4497 47.8716C34.9116 47.4097 35.1426 46.8564 35.1426 46.2119C35.1426 45.5674 34.9116 45.0142 34.4497 44.5522C33.9878 44.0903 33.4346 43.8594 32.79 43.8594C32.2529 43.8594 31.7749 44.0312 31.356 44.375C30.937 44.7188 30.6631 45.1377 30.5342 45.6318H30.1152C28.9336 45.6318 27.8325 45.3472 26.812 44.7778C25.7915 44.2085 24.9805 43.4189 24.3789 42.4092L22.6709 39.7344H23.0576C23.4014 39.7344 23.686 39.6216 23.9116 39.396C24.1372 39.1704 24.25 38.8965 24.25 38.5742V30.3242C24.25 29.9805 24.1372 29.6958 23.9116 29.4702C23.686 29.2446 23.4014 29.1318 23.0576 29.1318H21.8975C21.8975 27.6709 22.1768 26.2959 22.7354 25.0068C23.2939 23.7178 24.0513 22.5898 25.0073 21.623C25.9634 20.6562 27.0859 19.9043 28.375 19.3672C29.6641 18.8086 31.0391 18.5293 32.5 18.5293C33.9609 18.5293 35.3359 18.8086 36.625 19.3672C37.9141 19.9043 39.0366 20.6562 39.9927 21.623C40.9487 22.5898 41.7061 23.7178 42.2646 25.0068C42.8232 26.2959 43.1025 27.6709 43.1025 29.1318H41.9424C41.5986 29.1318 41.314 29.2446 41.0884 29.4702C40.8628 29.6958 40.75 29.9805 40.75 30.3242V38.5742C40.75 38.8965 40.8628 39.1704 41.0884 39.396C41.314 39.6216 41.5986 39.7344 41.9424 39.7344H44.0049C45.3799 39.7344 46.5562 39.2456 47.5337 38.2681C48.5112 37.2905 49 36.1143 49 34.7393V34.127C49 32.8164 48.5435 31.6777 47.6304 30.7109C46.7173 29.7441 45.6055 29.2285 44.2949 29.1641ZM31.9683 45.3901C31.9683 45.3901 32.0247 45.3337 32.1375 45.2209C32.2502 45.1082 32.4678 45.0518 32.79 45.0518C33.1123 45.0518 33.3916 45.1646 33.6279 45.3901C33.8643 45.6157 33.9824 45.8896 33.9824 46.2119C33.9824 46.5342 33.8643 46.8135 33.6279 47.0498C33.3916 47.2861 33.1123 47.4043 32.79 47.4043C32.4678 47.4043 32.1938 47.2861 31.9683 47.0498C31.7427 46.8135 31.6299 46.5342 31.6299 46.2119C31.6299 45.8896 31.7427 45.6157 31.9683 45.3901ZM23.0576 30.3242V38.5742H20.9951C19.9424 38.5742 19.0454 38.1982 18.3042 37.4463C17.563 36.6943 17.1924 35.792 17.1924 34.7393V34.127C17.1924 33.0742 17.563 32.1772 18.3042 31.436C19.0454 30.6948 19.9424 30.3242 20.9951 30.3242H23.0576ZM47.8076 34.7393C47.8076 35.792 47.437 36.6943 46.6958 37.4463C45.9546 38.1982 45.0576 38.5742 44.0049 38.5742H41.9424V30.3242H44.0049C45.0576 30.3242 45.9546 30.6948 46.6958 31.436C47.437 32.1772 47.8076 33.0742 47.8076 34.127V34.7393ZM37.3984 21.7842C37.3555 21.7842 37.3179 21.7681 37.2856 21.7358C37.2534 21.7036 37.2051 21.6768 37.1406 21.6553C37.0977 21.6123 37.0601 21.5801 37.0278 21.5586C36.9956 21.5371 36.958 21.5156 36.915 21.4941C36.7861 21.4082 36.6411 21.3867 36.48 21.4297C36.3188 21.4727 36.1953 21.5693 36.1094 21.7197C36.0449 21.8486 36.0288 21.9883 36.061 22.1387C36.0933 22.2891 36.1846 22.4072 36.335 22.4932C36.3564 22.5146 36.3887 22.5361 36.4316 22.5576C36.4746 22.5791 36.5176 22.6113 36.5605 22.6543C36.6035 22.6758 36.6465 22.7026 36.6895 22.7349C36.7324 22.7671 36.7754 22.7832 36.8184 22.7832C36.8613 22.8262 36.9097 22.853 36.9634 22.8638C37.0171 22.8745 37.0762 22.8799 37.1406 22.8799C37.2266 22.8799 37.3125 22.8584 37.3984 22.8154C37.4844 22.7725 37.5596 22.6973 37.624 22.5898C37.71 22.4609 37.7314 22.3159 37.6885 22.1548C37.6455 21.9937 37.5488 21.8701 37.3984 21.7842ZM32.5 20.3018C31.2539 20.3018 30.0669 20.5596 28.939 21.0752C27.811 21.5908 26.8389 22.3213 26.0225 23.2666C25.915 23.374 25.8667 23.5137 25.8774 23.6855C25.8882 23.8574 25.958 23.9971 26.0869 24.1045C26.1299 24.1475 26.1836 24.1797 26.248 24.2012C26.3125 24.2227 26.3877 24.2334 26.4736 24.2334C26.5596 24.2334 26.6401 24.2173 26.7153 24.1851C26.7905 24.1528 26.8496 24.1045 26.8926 24.04C27.6016 23.2236 28.4448 22.5898 29.4224 22.1387C30.3999 21.6875 31.4258 21.4619 32.5 21.4619C32.7578 21.4619 33.021 21.478 33.2896 21.5103C33.5581 21.5425 33.8213 21.5908 34.0791 21.6553C34.251 21.6768 34.4014 21.6445 34.5303 21.5586C34.6592 21.4727 34.7451 21.3545 34.7881 21.2041C34.8311 21.0537 34.8042 20.9087 34.7075 20.769C34.6108 20.6294 34.498 20.5381 34.3691 20.4951C34.0469 20.4307 33.73 20.3823 33.4185 20.3501C33.1069 20.3179 32.8008 20.3018 32.5 20.3018Z" fill="#863AC1"/>
</svg>
