<svg width="79" height="79" viewBox="0 0 79 79" fill="none" xmlns="http://www.w3.org/2000/svg">
<rect x="0.601695" y="0.601695" width="77.0169" height="77.0169" rx="38.5085" fill="white"/>
<rect x="0.601695" y="0.601695" width="77.0169" height="77.0169" rx="38.5085" stroke="#E1D7E9" stroke-width="1.20339"/>
<path d="M42.096 47.1182H26.1957C25.3684 47.1182 24.6639 46.8274 24.0822 46.2457C23.5004 45.6639 23.2096 44.9594 23.2096 44.1321V28.2318C23.2096 27.4303 23.5004 26.7388 24.0822 26.157C24.6639 25.5753 25.3684 25.2845 26.1957 25.2845H52.024C52.8513 25.2845 53.5558 25.5753 54.1375 26.157C54.7192 26.7388 55.0101 27.4303 55.0101 28.2318V30.2484C55.0101 30.507 54.9131 30.7332 54.7192 30.9271C54.5253 31.121 54.2862 31.218 54.0018 31.218C53.7174 31.218 53.4782 31.121 53.2843 30.9271C53.0904 30.7332 52.9935 30.507 52.9935 30.2484V28.2318C52.9935 27.9733 52.8965 27.7471 52.7026 27.5532C52.5087 27.3593 52.2825 27.2623 52.024 27.2623H26.1957C25.9372 27.2623 25.711 27.3593 25.5171 27.5532C25.3232 27.7471 25.2262 27.9733 25.2262 28.2318V44.1321C25.2262 44.4165 25.3232 44.6556 25.5171 44.8495C25.711 45.0434 25.9372 45.1404 26.1957 45.1404H42.096C42.3545 45.1404 42.5807 45.2373 42.7747 45.4313C42.9686 45.6252 43.0655 45.8514 43.0655 46.1099C43.0655 46.3943 42.9686 46.6335 42.7747 46.8274C42.5807 47.0213 42.3545 47.1182 42.096 47.1182ZM42.096 55.0684H22.2401C21.4127 55.0684 20.7082 54.7775 20.1265 54.1958C19.5448 53.6141 19.2539 52.9095 19.2539 52.0822V50.1044C19.2539 49.82 19.3509 49.5808 19.5448 49.3869C19.7387 49.193 19.9778 49.0961 20.2622 49.0961H42.096C42.3545 49.0961 42.5807 49.193 42.7747 49.3869C42.9686 49.5808 43.0655 49.82 43.0655 50.1044C43.0655 50.3629 42.9686 50.5891 42.7747 50.783C42.5807 50.977 42.3545 51.0739 42.096 51.0739H21.2317V52.0822C21.2317 52.3408 21.3287 52.567 21.5226 52.7609C21.7165 52.9548 21.9557 53.0517 22.2401 53.0517H42.096C42.3545 53.0517 42.5807 53.1487 42.7747 53.3426C42.9686 53.5365 43.0655 53.7757 43.0655 54.0601C43.0655 54.3444 42.9686 54.5836 42.7747 54.7775C42.5807 54.9714 42.3545 55.0684 42.096 55.0684ZM55.9796 55.0684H48.0295C47.228 55.0684 46.5364 54.7775 45.9547 54.1958C45.373 53.6141 45.0821 52.9095 45.0821 52.0822V36.182C45.0821 35.3546 45.373 34.6501 45.9547 34.0684C46.5364 33.4867 47.228 33.1958 48.0295 33.1958H55.9796C56.807 33.1958 57.5115 33.4867 58.0932 34.0684C58.6749 34.6501 58.9658 35.3546 58.9658 36.182V52.0822C58.9658 52.9095 58.6749 53.6141 58.0932 54.1958C57.5115 54.7775 56.807 55.0684 55.9796 55.0684ZM48.0295 35.2124C47.771 35.2124 47.5447 35.3094 47.3508 35.5033C47.1569 35.6972 47.06 35.9234 47.06 36.182V52.0822C47.06 52.3408 47.1569 52.567 47.3508 52.7609C47.5447 52.9548 47.771 53.0517 48.0295 53.0517H55.9796C56.264 53.0517 56.5032 52.9548 56.6971 52.7609C56.891 52.567 56.9879 52.3408 56.9879 52.0822V36.182C56.9879 35.9234 56.891 35.6972 56.6971 35.5033C56.5032 35.3094 56.264 35.2124 55.9796 35.2124H48.0295ZM52.3924 50.9963C52.3924 50.9963 52.3633 51.0093 52.3051 51.0351C52.2469 51.061 52.1532 51.0739 52.024 51.0739C51.8947 51.0739 51.7654 51.0481 51.6361 50.9963C51.5069 50.9446 51.4035 50.88 51.3259 50.8024C51.2225 50.699 51.1449 50.5891 51.0932 50.4728C51.0415 50.3565 51.0156 50.2336 51.0156 50.1044C51.0156 49.9751 51.0415 49.8458 51.0932 49.7166C51.1449 49.5873 51.2225 49.4839 51.3259 49.4063C51.4035 49.3029 51.5069 49.2253 51.6361 49.1736C51.7654 49.1219 51.8947 49.0961 52.024 49.0961C52.1532 49.0961 52.276 49.1219 52.3924 49.1736C52.5087 49.2253 52.6186 49.3029 52.722 49.4063C52.7996 49.4839 52.8642 49.5873 52.9159 49.7166C52.9676 49.8458 52.9935 49.9751 52.9935 50.1044C52.9935 50.2336 52.9676 50.3565 52.9159 50.4728C52.8642 50.5891 52.7996 50.699 52.722 50.8024C52.6186 50.88 52.5087 50.9446 52.3924 50.9963Z" fill="#863AC1"/>
</svg>
