<svg width="117" height="29" viewBox="0 0 117 29" fill="none" xmlns="http://www.w3.org/2000/svg">
<path d="M8.3804 7.18718C8.76868 6.41061 9.86881 6.44297 10.2247 7.18718L12.3603 11.4906L17.0844 12.1701C17.9256 12.2995 18.2492 13.335 17.6344 13.9497L14.237 17.2825L15.0459 21.9742C15.1753 22.8155 14.2693 23.4626 13.5251 23.0743L9.31875 20.8417L5.08001 23.0743C4.33581 23.4626 3.42982 22.8155 3.55924 21.9742L4.36816 17.2825L0.970703 13.9497C0.355924 13.335 0.679492 12.2995 1.52077 12.1701L6.27721 11.4906L8.3804 7.18718Z" fill="#863AC1"/>
<path d="M32.9351 7.18718C33.3234 6.41061 34.4235 6.44297 34.7794 7.18718L36.915 11.4906L41.6391 12.1701C42.4803 12.2995 42.8039 13.335 42.1891 13.9497L38.7917 17.2825L39.6006 21.9742C39.73 22.8155 38.824 23.4626 38.0798 23.0743L33.8734 20.8417L29.6347 23.0743C28.8905 23.4626 27.9845 22.8155 28.1139 21.9742L28.9229 17.2825L25.5254 13.9497C24.9106 13.335 25.2342 12.2995 26.0755 12.1701L30.8319 11.4906L32.9351 7.18718Z" fill="#863AC1"/>
<path d="M57.4898 7.18718C57.8781 6.41061 58.9782 6.44297 59.3341 7.18718L61.4697 11.4906L66.1937 12.1701C67.035 12.2995 67.3586 13.335 66.7438 13.9497L63.3464 17.2825L64.1553 21.9742C64.2847 22.8155 63.3787 23.4626 62.6345 23.0743L58.4281 20.8417L54.1894 23.0743C53.4452 23.4626 52.5392 22.8155 52.6686 21.9742L53.4775 17.2825L50.0801 13.9497C49.4653 13.335 49.7889 12.2995 50.6301 12.1701L55.3866 11.4906L57.4898 7.18718Z" fill="#863AC1"/>
<path d="M82.0445 7.18718C82.4327 6.41061 83.5329 6.44297 83.8888 7.18718L86.0243 11.4906L90.7484 12.1701C91.5897 12.2995 91.9133 13.335 91.2985 13.9497L87.901 17.2825L88.71 21.9742C88.8394 22.8155 87.9334 23.4626 87.1892 23.0743L82.9828 20.8417L78.7441 23.0743C77.9999 23.4626 77.0939 22.8155 77.2233 21.9742L78.0322 17.2825L74.6348 13.9497C74.02 13.335 74.3436 12.2995 75.1848 12.1701L79.9413 11.4906L82.0445 7.18718Z" fill="#863AC1"/>
<path d="M106.595 7.18718C106.984 6.41061 108.084 6.44297 108.44 7.18718L110.575 11.4906L115.299 12.1701C116.14 12.2995 116.464 13.335 115.849 13.9497L112.452 17.2825L113.261 21.9742C113.39 22.8155 112.484 23.4626 111.74 23.0743L107.534 20.8417L103.295 23.0743C102.551 23.4626 101.645 22.8155 101.774 21.9742L102.583 17.2825L99.1855 13.9497C98.5708 13.335 98.8943 12.2995 99.7356 12.1701L104.492 11.4906L106.595 7.18718Z" fill="#863AC1"/>
</svg>
