<svg width="16" height="16" viewBox="0 0 16 16" fill="none" xmlns="http://www.w3.org/2000/svg">
<path d="M14 11.2193V7.44149C14 6.74577 14 6.39791 13.8112 6.13602C13.6588 5.92447 13.4141 5.81202 12.9778 5.66064C12.8886 6.73145 12.5339 7.82499 11.977 8.78207C11.3285 9.89648 10.3656 10.8928 9.13132 11.4313C8.41202 11.7451 7.58798 11.7451 6.86868 11.4313C5.63443 10.8928 4.67145 9.89648 4.02299 8.78207C3.60057 8.05612 3.29453 7.25167 3.13241 6.43818C2.87738 6.40062 2.68167 6.41989 2.51278 6.51412C2.44539 6.55171 2.38258 6.59698 2.32561 6.64902C2 6.94641 2 7.49938 2 8.6053V11.8918C2 12.5875 2 12.9354 2.18876 13.1973C2.37752 13.4591 2.70753 13.5691 3.36754 13.7892L3.62325 13.8744L3.62326 13.8744C4.67458 14.2248 5.20024 14.4 5.73792 14.4011C5.89986 14.4014 6.06162 14.3899 6.22189 14.3667C6.75403 14.2896 7.25393 14.0397 8.25375 13.5398C9.01995 13.1567 9.40306 12.9651 9.81001 12.8762C9.95283 12.845 10.0976 12.8233 10.2432 12.8111C10.6583 12.7764 11.0771 12.8462 11.9147 12.9858L11.9148 12.9858C12.7636 13.1272 13.1881 13.198 13.498 13.02C13.6032 12.9596 13.6966 12.8805 13.7735 12.7866C14 12.5102 14 12.0799 14 11.2193Z" fill="black"/>
<path fill-rule="evenodd" clip-rule="evenodd" d="M8 1.3335C5.79086 1.3335 4 3.03491 4 5.1337C4 7.21605 5.27666 9.64595 7.26853 10.5149C7.73287 10.7175 8.26713 10.7175 8.73147 10.5149C10.7233 9.64595 12 7.21605 12 5.1337C12 3.03491 10.2091 1.3335 8 1.3335ZM8 6.66683C8.73638 6.66683 9.33333 6.06988 9.33333 5.3335C9.33333 4.59712 8.73638 4.00016 8 4.00016C7.26362 4.00016 6.66667 4.59712 6.66667 5.3335C6.66667 6.06988 7.26362 6.66683 8 6.66683Z" fill="black"/>
</svg>
