<svg width="1280" height="388" viewBox="0 0 1280 388" fill="none" xmlns="http://www.w3.org/2000/svg">
<path d="M190.303 212.003C190.303 216.969 189.165 221.496 186.889 225.557C184.613 229.644 181.121 232.955 176.439 235.49C171.731 237.973 165.911 239.214 158.953 239.214H146.123V269.84H125.327V184.584H158.953C165.782 184.584 171.524 185.774 176.232 188.102C180.914 190.456 184.432 193.689 186.785 197.828C189.113 201.967 190.303 206.7 190.303 212.003ZM157.401 222.66C161.333 222.66 164.256 221.729 166.196 219.866C168.187 218.004 169.196 215.391 169.196 212.003C169.196 208.64 168.187 206.002 166.196 204.139C164.256 202.277 161.333 201.346 157.401 201.346H146.123V222.66H157.401Z" fill="#863AC1"/>
<path d="M221.903 253.803H249.114V269.84H201.106V184.584H221.903V253.803Z" fill="#863AC1"/>
<path d="M312.165 254.734H280.298L275.228 269.84H253.5L284.333 184.584H308.337L339.273 269.84H317.235L312.165 254.734ZM306.785 238.697L296.231 207.554L285.781 238.697H306.785Z" fill="#863AC1"/>
<path d="M424.867 269.84H404.071L369.41 217.28V269.84H348.613V184.584H369.41L404.071 237.455V184.584H424.867V269.84Z" fill="#863AC1"/>
<path d="M518.741 254.734H486.874L481.804 269.84H460.076L490.909 184.584H514.913L545.849 269.84H523.811L518.741 254.734ZM513.361 238.697L502.807 207.554L492.357 238.697H513.361Z" fill="#863AC1"/>
<path d="M698.194 184.584L675.949 269.84H650.806L637.252 213.762L623.078 269.84H597.935L576.311 184.584H598.556L610.869 246.664L626.078 184.584H648.841L663.429 246.664L675.845 184.584H698.194Z" fill="#863AC1"/>
<path d="M729.479 201.242V218.418H757.208V234.455H729.479V253.182H760.932V269.84H708.682V184.584H760.932V201.242H729.479Z" fill="#863AC1"/>
<path d="M806.314 184.584C815.264 184.584 823.101 186.395 829.8 189.965C836.552 193.482 841.751 198.501 845.424 204.967C849.149 211.382 851.011 218.806 851.011 227.212C851.011 235.567 849.149 242.991 845.424 249.457C841.751 255.95 836.552 260.994 829.8 264.563C823.023 268.081 815.212 269.84 806.314 269.84H774.343V184.584H806.314ZM804.969 251.837C812.832 251.837 818.937 249.716 823.282 245.422C827.628 241.154 829.8 235.076 829.8 227.212C829.8 219.349 827.628 213.244 823.282 208.899C818.937 204.502 812.832 202.277 804.969 202.277H795.139V251.837H804.969Z" fill="#863AC1"/>
<path d="M894.671 184.584C903.62 184.584 911.458 186.395 918.157 189.965C924.909 193.482 930.108 198.501 933.781 204.967C937.506 211.382 939.368 218.806 939.368 227.212C939.368 235.567 937.506 242.991 933.781 249.457C930.108 255.95 924.909 260.994 918.157 264.563C911.38 268.081 903.569 269.84 894.671 269.84H862.7V184.584H894.671ZM893.326 251.837C901.189 251.837 907.294 249.716 911.639 245.422C915.985 241.154 918.157 235.076 918.157 227.212C918.157 219.349 915.985 213.244 911.639 208.899C907.294 204.502 901.189 202.277 893.326 202.277H883.496V251.837H893.326Z" fill="#863AC1"/>
<path d="M971.739 184.584V269.84H950.942V184.584H971.739Z" fill="#863AC1"/>
<path d="M1063.04 269.84H1042.25L1007.59 217.28V269.84H986.79V184.584H1007.59L1042.25 237.455V184.584H1063.04V269.84Z" fill="#863AC1"/>
<path d="M1134.69 211.503C1133.16 208.684 1130.96 206.537 1128.06 205.088C1125.17 203.588 1121.78 202.812 1117.92 202.812C1111.15 202.812 1105.74 205.037 1101.68 209.434C1097.67 213.857 1095.68 219.755 1095.68 227.127C1095.68 234.99 1097.77 241.146 1101.99 245.544C1106.26 249.967 1112.13 252.165 1119.58 252.165C1124.68 252.165 1129 250.872 1132.51 248.234C1136.03 245.621 1138.62 241.896 1140.27 237.059H1113.89V221.746H1159.1V241.094C1157.58 246.268 1154.97 251.105 1151.24 255.58C1147.57 260.003 1142.89 263.598 1137.17 266.34C1131.5 269.108 1125.12 270.479 1118.03 270.479C1109.6 270.479 1102.09 268.668 1095.47 264.995C1088.9 261.27 1083.78 256.149 1080.06 249.579C1076.38 243.034 1074.57 235.559 1074.57 227.127C1074.57 218.72 1076.38 211.193 1080.06 204.571C1083.78 197.949 1088.9 192.828 1095.47 189.155C1102.02 185.43 1109.49 183.568 1117.92 183.568C1128.12 183.568 1136.7 186.051 1143.69 191.017C1150.72 195.983 1155.38 202.812 1157.66 211.503H1134.69Z" fill="#863AC1"/>
<path d="M134.638 301.261H1140.04H134.638Z" fill="#863AC1"/>
<path fill-rule="evenodd" clip-rule="evenodd" d="M652.826 23C665.217 23.8766 672.59 25.6094 680.66 29.5422C689.175 33.6919 695.172 40.1053 698.685 48.8181C700.925 54.3747 701.868 59.7922 701.868 67.0249C701.868 75.5154 699.453 81.7227 695.476 88.1354C693.481 91.3524 692.106 93.0592 688.682 96.5718C685.021 100.327 680.933 103.253 675.394 106.083C669.41 109.14 663.919 110.783 655.724 111.97C652.417 112.449 639.4 112.946 639.4 112.593C639.4 112.475 639.61 111.972 639.866 111.477C640.282 110.671 640.483 110.577 641.79 110.577C644.353 110.577 652.876 109.392 655.958 108.607C671.29 104.703 681.81 93.4535 685.135 77.4085C687.023 68.2963 686.602 57.6929 684.034 49.7106C681.594 42.1237 677.056 35.9418 671.057 32.0314C668.084 30.0935 666.591 29.4058 662.742 28.203C654.46 25.6143 647.431 25.1325 621.398 25.3699L606.9 25.5157V115.138C606.9 115.138 606.9 135.578 606.9 149.414C606.9 158.848 608.566 163.162 611.931 164.509C613.504 165.137 613.821 165.349 615.076 165.766C617.225 166.481 620.736 167.024 620.736 167.024H579.227C579.227 167.024 581.599 166.098 582.372 165.766C583.726 165.185 584.104 164.903 584.888 164.509C589.992 161.937 592.435 158.848 592.435 149.414C592.435 142.496 592.545 46.8992 592.545 40.61C591.985 34.1612 590.163 29.6374 588.052 27.3495C586.724 25.9115 584.573 24.8868 583.001 24.2579C582.391 24.014 579.227 23 579.227 23C579.227 23 647.151 23 652.826 23ZM645.197 35.8625C645.197 36.3236 645.362 36.8026 645.562 36.9265C645.763 37.0504 647.186 37.2472 648.725 37.3634C652.206 37.6267 655.08 38.5635 657.511 40.227C660.041 41.958 661.209 43.8394 661.198 46.1638C661.193 47.1045 661.011 48.1978 660.793 48.5932L660.397 49.3121L659.434 48.3808C658.017 47.0108 655.458 45.9774 652.52 45.5886C644.301 44.5009 643.607 44.3038 642.15 42.6448C641.134 41.4878 641.069 40.9636 641.659 38.7215C641.92 37.7314 641.969 36.8767 641.798 36.2827C641.435 35.0167 641.469 34.6011 641.937 34.6011C642.438 34.6011 644.052 36.2549 643.798 36.5088C643.696 36.6116 643.9 36.6201 644.252 36.5283C644.604 36.4361 644.886 36.2738 644.879 36.1673C644.872 36.0611 644.186 35.4494 643.354 34.8077C642.522 34.166 641.841 33.4322 641.841 33.1765C641.841 32.9211 642.13 32.306 642.484 31.8095L643.126 30.9073L644.162 32.9654C644.731 34.0977 645.197 35.4012 645.197 35.8625ZM641.07 42.9158C641.641 45.4318 641.774 46.3212 641.632 46.691C641.006 48.3219 639.64 44.9662 640.132 43.0064C640.373 42.0452 640.862 41.9979 641.07 42.9158ZM642.906 44.3611C643.253 44.9226 647.166 45.8642 650.452 46.1769C652.251 46.3484 654.58 46.7771 655.626 47.1295C657.696 47.827 659.843 49.3255 659.843 50.0727C659.843 50.4844 659.759 50.4801 659.157 50.0367C657.645 48.9243 655.283 48.0275 653.121 47.7453C651.867 47.5814 649.606 47.294 648.096 47.106C645.044 46.7261 642.979 45.9609 642.477 45.0242C642.295 44.6836 642.146 44.3276 642.146 44.2327C642.146 43.9446 642.708 44.0395 642.906 44.3611ZM636.056 46.8183C636.757 47.5195 637.264 48.6826 637.264 49.5894C637.264 50.175 637.232 50.178 636.39 49.6807C635.387 49.0878 634.518 47.7678 634.518 46.8354C634.518 46.0183 635.248 46.0103 636.056 46.8183ZM646.326 48.364C649.412 49.2062 650.27 49.6657 650.85 50.7879C651.423 51.8962 651.733 51.7531 652.558 49.9974C653.38 48.2493 654.224 47.9695 655.211 49.1171C655.881 49.8961 655.936 50.1679 655.774 51.8965L655.596 53.8123L656.88 54.551C657.587 54.9572 658.598 55.3801 659.128 55.4902C659.837 55.6376 660.145 55.9055 660.296 56.5041C660.412 56.9685 660.367 57.3619 660.19 57.4207C659.532 57.6401 654.817 60.6111 653.811 61.4404L652.751 62.3143L651.367 60.706L649.787 61.4459C647.988 62.2884 647.424 62.1334 646.896 60.6502C646.717 60.1476 646.261 59.4098 645.884 59.011C645.506 58.6123 645.197 58.1744 645.197 58.038C645.197 57.9019 644.794 57.7906 644.3 57.7906C643.806 57.7906 643.327 57.6688 643.235 57.5199C643.143 57.371 643.219 56.498 643.403 55.5799C643.706 54.0711 643.662 53.6894 642.942 51.6039C642.175 49.3804 641.924 47.4346 642.351 47.0084C642.463 46.8961 642.868 47.0087 643.25 47.2592C643.632 47.5097 645.016 48.0067 646.326 48.364ZM632.382 48.3396C632.969 48.5099 633.707 48.8455 634.022 49.0857C634.575 49.5083 634.569 49.565 633.806 50.867C632.555 53.001 630.407 55.4805 628.183 57.3588C625.698 59.4568 625.022 60.4256 627.048 58.9848C630.33 56.65 633.785 52.9223 634.774 50.647C635.136 49.814 635.192 49.7905 635.674 50.2723C636.156 50.7541 636.142 50.8722 635.458 52.1632C634.493 53.9814 631.823 56.8041 629.178 58.803C626.801 60.5995 626.561 61.1716 627.214 63.5019C627.67 65.1309 627.179 66.9897 626.108 67.6918C625.501 68.0891 625.376 68.0888 625.045 67.69C624.743 67.3266 624.77 67.127 625.183 66.6712C625.638 66.1687 625.642 66.0838 625.225 65.9236C624.56 65.6685 624.64 64.7211 625.364 64.2689C626.17 63.7658 626.134 63.2181 625.199 61.7364C624.177 60.118 623.91 59.3732 623.549 57.1287C622.996 53.6933 624.151 50.8993 626.756 49.3728C628.908 48.1114 630.553 47.8093 632.382 48.3396ZM637.569 51.0778C637.569 51.2456 637.432 51.3829 637.264 51.3829C637.096 51.3829 636.959 51.2456 636.959 51.0778C636.959 50.91 637.096 50.7727 637.264 50.7727C637.432 50.7727 637.569 50.91 637.569 51.0778ZM638.537 52.4982C638.844 52.7758 639.089 53.3595 639.082 53.795L639.07 54.5868L638.167 53.5304C637.671 52.9495 637.264 52.3657 637.264 52.2336C637.264 51.8251 637.951 51.9679 638.537 52.4982ZM621.271 53.8508C621.311 55.4585 621.163 55.6666 620.234 55.3129C619.245 54.9373 618.984 54.5495 619.189 53.7647C619.345 53.167 620.355 52.5684 620.94 52.727C621.108 52.7725 621.257 53.2784 621.271 53.8508ZM622.923 52.9086C622.923 53.0764 622.709 53.2137 622.448 53.2137C622.186 53.2137 622.057 53.0764 622.161 52.9086C622.264 52.7407 622.478 52.6034 622.636 52.6034C622.794 52.6034 622.923 52.7407 622.923 52.9086ZM637.951 54.4131C638.412 55.0658 638.791 55.7838 638.792 56.0086C638.796 57.0918 639.528 58.8304 640.396 59.819L641.359 60.9156L640.661 61.4804C640.278 61.791 640.045 62.177 640.145 62.3378C640.244 62.4986 640.199 62.7085 640.044 62.8044C639.889 62.8999 639.83 63.2373 639.913 63.5537C639.996 63.8705 639.923 64.2159 639.752 64.3217C639.576 64.4304 639.518 64.9924 639.618 65.6072C639.848 67.0294 639.447 67.2763 637.026 67.2039C635.971 67.1725 634.968 67.2878 634.796 67.4599C634.407 67.849 634.279 71.3646 634.611 72.5573L634.857 73.4407L633.176 73.2674C631.483 73.0925 628.088 71.7713 627.494 71.0561C627.267 70.7824 627.317 70.3125 627.668 69.435C628.122 68.3012 628.225 68.2234 628.919 68.4873C629.975 68.8888 630.164 68.8574 630.857 68.1648C631.698 67.3235 631.655 65.711 630.767 64.7523C630.17 64.1082 630.13 63.9379 630.495 63.5965C630.803 63.3093 630.887 62.6844 630.793 61.3852L630.662 59.5743L632.228 58.2363C633.089 57.5004 634.459 56.0693 635.271 55.056C636.084 54.0427 636.831 53.2167 636.93 53.2201C637.03 53.2238 637.489 53.7605 637.951 54.4131ZM622.618 53.9765C622.618 54.2282 622.481 54.4342 622.313 54.4342C622.145 54.4342 622.008 54.2282 622.008 53.9765C622.008 53.7248 622.145 53.5188 622.313 53.5188C622.481 53.5188 622.618 53.7248 622.618 53.9765ZM622.618 55.9598C622.618 56.4633 622.496 56.8752 622.346 56.8752C621.96 56.8752 621.689 56.0452 621.897 55.5021C622.195 54.7268 622.618 54.9953 622.618 55.9598ZM619.405 56.9844C619.243 58.0649 619.301 58.3505 619.716 58.5097C620.112 58.662 620.18 58.9262 620.02 59.6973C619.66 61.438 618.011 62.0846 617.393 60.7277C616.987 59.8364 617.436 58.8423 618.38 58.5427C619.018 58.3401 619.018 58.3349 618.307 57.9803C616.955 57.3069 617.349 55.6547 618.86 55.6547C619.566 55.6547 619.594 55.7239 619.405 56.9844ZM621.337 56.8312C621.504 57.3106 621.535 57.8732 621.406 58.0819C621.034 58.6843 620.035 58.3166 619.924 57.5364C619.69 55.8924 620.814 55.3316 621.337 56.8312ZM623.043 57.9681C623.359 58.7904 623.249 59.3162 622.761 59.3162C622.21 59.3162 621.87 58.5906 622.118 57.9431C622.347 57.346 622.809 57.3585 623.043 57.9681ZM662.583 58.9988C662.922 59.6634 663.2 60.3478 663.2 60.5193C663.2 60.6911 662.494 61.1893 661.63 61.6269C660.767 62.0641 658.52 63.371 656.637 64.5304C654.754 65.6902 653.126 66.6392 653.02 66.6392C652.913 66.6392 652.826 65.9099 652.826 65.0186C652.826 63.1259 653.178 62.6438 655.808 60.9385C658.132 59.4321 661.125 57.8061 661.592 57.7976C661.798 57.7936 662.244 58.3343 662.583 58.9988ZM621.868 59.8501C621.965 60.3115 622.164 60.912 622.31 61.1841C622.586 61.701 622.163 62.3674 621.557 62.3674C621.176 62.3674 620.177 61.2745 620.177 60.8583C620.177 60.1351 620.819 59.011 621.232 59.011C621.487 59.011 621.77 59.3845 621.868 59.8501ZM623.534 60.562C623.534 61.3056 622.82 61.2006 622.672 60.4351C622.614 60.1339 622.769 59.9264 623.054 59.9264C623.336 59.9264 623.534 60.1873 623.534 60.562ZM629.926 60.6709C630.411 61.2552 630.217 62.6863 629.601 63.0716C628.775 63.5885 628.11 63.1018 628.11 61.9802C628.11 60.4372 629.125 59.7055 629.926 60.6709ZM629.178 60.8418C629.075 61.0096 629.135 61.1469 629.313 61.1469C629.491 61.1469 629.636 61.0096 629.636 60.8418C629.636 60.674 629.576 60.5367 629.501 60.5367C629.427 60.5367 629.282 60.674 629.178 60.8418ZM620.452 62.1825C621.054 62.8236 621.089 62.9929 620.734 63.5669C620.303 64.2647 619.2 64.6897 618.67 64.3623C618.494 64.2534 618.206 63.8964 618.031 63.569C617.774 63.0884 617.859 62.8269 618.473 62.2127C619.414 61.272 619.594 61.2693 620.452 62.1825ZM624.579 61.9607C624.892 62.7766 624.183 63.2398 623.675 62.5514C623.44 62.2328 623.32 61.8554 623.409 61.7123C623.679 61.2751 624.372 61.4221 624.579 61.9607ZM663.505 61.8691C663.505 61.9308 662.969 62.336 662.314 62.7693C660.936 63.6813 658.666 66.5162 657.667 68.5736C657.286 69.3557 656.797 69.9955 656.579 69.9955C656.36 69.9955 656.182 69.9137 656.182 69.814C656.182 69.5391 658.822 65.6777 659.609 64.8011C661.064 63.1812 663.505 61.3443 663.505 61.8691ZM623.534 63.3911C623.94 64.1222 623.94 64.2461 623.534 64.5063C622.805 64.9723 622.269 64.8572 622.096 64.1982C622.009 63.8625 621.815 63.5879 621.667 63.5879C621.27 63.5879 621.338 63.9766 621.865 64.7303C622.295 65.343 622.282 65.4495 621.713 66.0188C620.929 66.8024 620.59 66.8003 620.167 66.0094C619.912 65.5328 619.928 65.2557 620.232 64.8691C620.454 64.5884 620.772 64.1753 620.94 63.9513C622.284 62.1569 622.786 62.0486 623.534 63.3911ZM667.124 63.2916C668.07 63.8 669.188 64.4834 669.607 64.8105L670.37 65.4052L669.302 65.415C667.103 65.4348 664.485 67.189 662.652 69.8698C660.684 72.7484 659.621 79.6051 660.006 86.9317L660.214 90.9002L659.342 91.7783C658.357 92.7709 654.391 95.6259 653.998 95.6259C653.674 95.6259 653.694 89.5305 654.024 87.6927C654.16 86.9375 654.701 84.7727 655.226 82.8818C656.272 79.1193 656.355 78.3385 655.833 77.1919C655.543 76.5554 655.626 76.0257 656.325 74.05C657.597 70.4556 658.705 68.1889 660.096 66.334C661.517 64.4395 663.982 62.3781 664.835 62.3717C665.147 62.3692 666.177 62.7833 667.124 63.2916ZM625.364 63.4353C625.364 63.6871 625.158 63.893 624.907 63.893C624.43 63.893 624.301 63.5321 624.652 63.1812C625.003 62.83 625.364 62.9587 625.364 63.4353ZM652.144 64.9631C652.19 65.8849 652.161 66.6392 652.08 66.6392C651.815 66.6392 651.255 64.1438 651.422 63.7084C651.763 62.8211 652.066 63.3472 652.144 64.9631ZM659.047 64.3272C658.956 64.5658 658.706 64.8282 658.492 64.9103C657.482 65.2978 654.477 70.6714 653.317 74.166C652.918 75.3669 652.59 75.8164 651.906 76.0998C651.416 76.3027 650.856 76.66 650.662 76.8938C649.803 77.9291 649.73 77.4796 650.119 73.5459C650.497 69.7218 651.114 68.4873 653.164 67.4447C654.069 66.9846 655.77 66.0072 656.945 65.2725C658.119 64.5381 659.11 63.9269 659.147 63.915C659.184 63.9028 659.139 64.0883 659.047 64.3272ZM630.541 65.7994C631.094 66.7859 630.726 67.6491 629.684 67.8041C628.763 67.9414 628.179 66.637 628.675 65.5495C629.122 64.568 629.909 64.6732 630.541 65.7994ZM624.307 65.758C624.555 66.54 623.795 67.4151 623.1 67.1481C622.622 66.965 622.431 65.7073 622.822 65.317C623.252 64.8868 624.112 65.1422 624.307 65.758ZM618.936 73.0748C618.711 76.8663 618.642 81.7059 618.761 85.2798C618.87 88.5367 619.047 95.3467 619.154 100.413L619.348 109.624L617.165 113.991C614.371 119.581 613.781 122.146 613.776 128.732C613.771 134.7 614.618 139.859 616.557 145.682L617.223 147.681L616.1 149.801C615.482 150.967 614.19 152.91 613.229 154.118C611.513 156.274 611.477 156.299 611.256 155.491C610.408 152.391 610.108 148.012 610.108 138.718C610.108 130.54 610.021 128.56 609.575 126.552C609.155 124.661 609.044 122.739 609.051 117.442C609.062 109.849 609.265 108.246 611.195 100.508C612.393 95.7047 613.612 89.1875 614.677 81.8954C615.337 77.374 617.703 67.2308 618.403 65.9239C619.158 64.5118 619.317 66.6453 618.936 73.0748ZM629.786 66.644C629.68 66.8146 629.466 66.8753 629.31 66.7786C629.154 66.6822 629.026 66.7581 629.026 66.9476C629.026 67.4075 630.317 67.2009 630.477 66.7154C630.627 66.2596 630.059 66.2013 629.786 66.644ZM671.482 67.3464C673.313 68.4873 674.057 75.2061 673.146 82.3576C672.52 87.2601 670.751 95.568 670.008 97.0875C669.511 98.1032 668.922 98.4877 664.268 100.833C661.209 102.374 657.516 103.957 655.266 104.69C649.351 106.619 650.053 106.727 648.58 103.658C647.883 102.205 647.421 100.908 647.554 100.775C647.688 100.642 649.139 99.8495 650.78 99.014C653.849 97.4515 657.682 94.9913 659.504 93.4141C660.183 92.8264 660.759 92.5704 661.182 92.6675C661.536 92.7486 662.273 92.9155 662.818 93.0382C664.207 93.3506 664.066 92.8051 662.589 92.1536C661.292 91.5812 660.986 91.0491 661.954 91.0491C662.817 91.0491 663.526 90.7192 663.332 90.4068C663.24 90.2567 662.791 90.1337 662.336 90.1337H661.509L661.536 83.1921C661.565 75.7666 661.728 74.7301 663.369 71.4885C664.425 69.4027 665.47 68.3051 667.25 67.4111C668.909 66.5778 670.216 66.558 671.482 67.3464ZM650.995 67.5545C650.995 67.7223 650.857 67.8596 650.69 67.8596C650.522 67.8596 650.384 67.7223 650.384 67.5545C650.384 67.3867 650.522 67.2494 650.69 67.2494C650.857 67.2494 650.995 67.3867 650.995 67.5545ZM621.379 70.2244C621.356 73.3363 621.012 75.3071 620.383 75.936C619.905 76.4135 619.872 76.3711 619.875 75.2806C619.878 73.9237 620.427 68.8006 620.63 68.2411C620.706 68.0314 620.91 67.8596 621.083 67.8596C621.274 67.8596 621.391 68.7915 621.379 70.2244ZM648.533 70.6491C648.034 72.1183 647.842 73.5517 647.744 76.5557C647.615 80.4826 646.813 85.8019 646.418 85.339C646.306 85.2072 645.745 83.6574 645.172 81.8954C643.868 77.8872 643.733 74.5663 644.796 72.5891C645.851 70.625 648.862 67.7169 649.101 68.4321C649.151 68.5843 648.896 69.5818 648.533 70.6491ZM650.69 68.2801C650.69 68.3433 650.481 68.5688 650.225 68.7808C649.836 69.1033 649.792 69.0844 649.952 68.6655C650.117 68.238 650.69 67.9381 650.69 68.2801ZM649.808 70.3885C649.559 70.6375 649.469 70.6033 649.469 70.2601C649.469 69.6535 649.879 69.2431 650.031 69.698C650.096 69.8912 649.995 70.2018 649.808 70.3885ZM656.568 70.4831C656.883 70.7986 656.443 71.5211 655.936 71.5211C655.586 71.5211 655.543 71.6142 655.78 71.8519C656.267 72.3389 655.896 73.3519 655.231 73.3519C654.506 73.3519 654.512 73.2509 655.32 71.631C655.972 70.3275 656.201 70.1163 656.568 70.4831ZM649.774 71.3506C649.774 71.843 649.342 72.2077 649.075 71.9407C648.837 71.7027 649.165 70.9109 649.502 70.9109C649.652 70.9109 649.774 71.1086 649.774 71.3506ZM628.263 72.4057C630.743 73.9783 633.738 74.5452 635.586 73.7916C636.129 73.57 636.15 73.5993 635.778 74.0576C635.465 74.4412 634.872 74.5724 633.448 74.5724C631.824 74.5724 631.166 74.3866 629.061 73.333C627.699 72.6513 626.585 71.9648 626.585 71.8073C626.585 71.3832 626.737 71.4375 628.263 72.4057ZM627.348 73.2088C627.851 73.6213 628.126 73.9591 627.958 73.9591C627.79 73.9591 627.241 73.6213 626.737 73.2088C626.234 72.7962 625.959 72.4585 626.127 72.4585C626.295 72.4585 626.844 72.7962 627.348 73.2088ZM627.107 74.457C627.039 74.5248 626.458 74.3609 625.816 74.0927C624.965 73.737 624.762 73.5356 625.066 73.3476C625.46 73.1044 627.403 74.1614 627.107 74.457ZM649.3 73.6829C649.202 73.8419 648.992 73.8916 648.833 73.7934C648.674 73.6951 648.624 73.4849 648.722 73.3259C648.821 73.167 649.031 73.1172 649.19 73.2155C649.349 73.3137 649.399 73.524 649.3 73.6829ZM655.262 74.191C655.259 74.4845 655.128 74.9297 654.969 75.1802C654.555 75.835 653.926 75.1244 654.189 74.2981C654.434 73.5237 655.268 73.4407 655.262 74.191ZM629.916 74.4576C629.986 74.5208 629.96 74.6551 629.859 74.7561C629.758 74.8571 629.358 74.7069 628.969 74.4226L628.263 73.9057L629.026 74.1245C629.445 74.2447 629.846 74.3948 629.916 74.4576ZM649.164 74.5724C649.164 74.7402 649.027 74.8775 648.859 74.8775C648.691 74.8775 648.554 74.7402 648.554 74.5724C648.554 74.4046 648.691 74.2673 648.859 74.2673C649.027 74.2673 649.164 74.4046 649.164 74.5724ZM626.831 75.4447C628.95 76.5093 637.619 82.0751 637.985 82.6066C638.711 83.6602 636.683 88.9196 634.506 91.6285L633.503 92.8765L632.922 91.5812C632.602 90.8691 632.066 89.2565 631.731 87.9978C630.178 82.1718 628.978 79.3308 627.616 78.2598C626.512 77.3914 626.283 77.7313 627.272 78.7709C627.709 79.2307 628.348 80.3258 628.693 81.2046C629.429 83.0835 630.62 88.5556 630.378 88.9474C630.286 89.0963 629.905 89.2183 629.533 89.2183C628.757 89.2183 624.625 91.1278 624.314 91.63C623.865 92.3578 623.437 91.8403 621.997 88.8269C619.357 83.2995 619.391 78.3339 622.088 75.7715C623.577 74.3557 624.531 74.2898 626.831 75.4447ZM632.331 76.3522C633.956 76.8221 634.055 76.8114 636.121 75.9497C636.537 75.7764 636.753 75.9558 637.086 76.7516C637.59 77.9583 638.18 80.9821 637.909 80.9748C637.806 80.972 636.555 80.2199 635.128 79.3033C633.702 78.3867 631.574 77.0927 630.399 76.4275C627.367 74.7106 627.119 74.4949 629.026 75.2327C629.949 75.5897 631.436 76.0934 632.331 76.3522ZM631.009 74.8775C631.113 75.0453 631.052 75.1826 630.875 75.1826C630.697 75.1826 630.551 75.0453 630.551 74.8775C630.551 74.7097 630.612 74.5724 630.686 74.5724C630.76 74.5724 630.905 74.7097 631.009 74.8775ZM636.044 75.0121C636.044 75.0862 635.906 75.2314 635.739 75.3352C635.571 75.4389 635.433 75.3782 635.433 75.2006C635.433 75.023 635.571 74.8775 635.739 74.8775C635.906 74.8775 636.044 74.9379 636.044 75.0121ZM633.908 75.4878C633.908 75.6556 633.762 75.7929 633.585 75.7929C633.407 75.7929 633.346 75.6556 633.45 75.4878C633.554 75.3199 633.699 75.1826 633.773 75.1826C633.847 75.1826 633.908 75.3199 633.908 75.4878ZM635.128 75.4878C635.128 75.6556 634.991 75.7929 634.823 75.7929C634.655 75.7929 634.518 75.6556 634.518 75.4878C634.518 75.3199 634.655 75.1826 634.823 75.1826C634.991 75.1826 635.128 75.3199 635.128 75.4878ZM649.164 75.7929C649.164 75.9607 649.027 76.098 648.859 76.098C648.691 76.098 648.554 75.9607 648.554 75.7929C648.554 75.6251 648.691 75.4878 648.859 75.4878C649.027 75.4878 649.164 75.6251 649.164 75.7929ZM639.112 77.194C640.021 78.6647 640.926 82.2227 640.926 84.3278C640.926 88.1126 639.024 92.5582 636.663 94.2907C635.04 95.4822 634.632 95.55 634.354 94.674C634.215 94.237 634.36 93.7665 634.8 93.2246C638.699 88.4183 640.018 84.044 638.997 79.3018C638.744 78.1271 638.442 76.9255 638.326 76.632C637.969 75.7315 638.398 76.0379 639.112 77.194ZM652.52 78.6916C651.169 81.0538 651.545 81.5079 652.945 79.2036C654.574 76.5224 655.095 77.1177 653.634 79.9905C653.01 81.2171 652.747 82.2005 653.044 82.2005C653.187 82.2005 653.695 81.3766 654.174 80.3697C654.652 79.3628 655.165 78.539 655.313 78.539C655.606 78.539 655.357 79.8776 654.895 80.7752C654.738 81.0819 654.399 82.043 654.141 82.9111C653.476 85.1565 652.659 86.6404 651.246 88.1733L650.015 89.5088L648.653 88.5715C647.64 87.8743 647.346 87.5048 647.509 87.1295C647.629 86.8518 647.847 85.5989 647.993 84.3452C648.298 81.733 649.056 79.959 650.416 78.6732L651.365 77.7762L650.384 79.2429C648.827 81.5692 649.551 81.2549 651.504 78.7568C652.482 77.5049 653.328 76.5993 653.384 76.7439C653.439 76.8883 653.051 77.7649 652.52 78.6916ZM649.164 77.5083C649.164 77.9138 649.081 77.9348 648.706 77.6236C648.455 77.4146 648.249 77.1919 648.249 77.1287C648.249 77.0652 648.455 77.0134 648.706 77.0134C648.958 77.0134 649.164 77.2361 649.164 77.5083ZM642.388 79.5306C643.84 81.4184 644.892 84.322 644.892 86.4377C644.892 87.9231 644.856 87.982 642.692 89.9564C641.482 91.061 640.382 91.9645 640.248 91.9645C640.114 91.9645 640.337 91.3124 640.744 90.5151C642.267 87.5328 642.41 82.9251 641.097 79.2039C640.85 78.5024 640.762 77.9287 640.902 77.9287C641.042 77.9287 641.711 78.6497 642.388 79.5306ZM649.164 78.8261C649.164 78.9842 649.027 79.1981 648.859 79.3018C648.691 79.4055 648.554 79.2762 648.554 79.0147C648.554 78.7532 648.691 78.539 648.859 78.539C649.027 78.539 649.164 78.6681 649.164 78.8261ZM648.361 89.4472C649.117 90.0767 649.744 90.7549 649.755 90.9548C649.803 91.8561 649.063 91.5492 647.427 89.9894C645.964 88.5953 645.773 88.303 646.322 88.303C646.687 88.303 647.605 88.818 648.361 89.4472ZM652.711 89.8667C652.606 90.3912 652.52 92.0456 652.52 93.5432V96.2661L651.237 96.8407C650.531 97.1565 649.845 97.3478 649.711 97.2654C649.578 97.183 649.469 96.1794 649.469 95.0349C649.469 93.5374 649.6 92.8456 649.937 92.5662C650.195 92.3523 650.845 91.443 651.382 90.5453C652.479 88.7097 652.995 88.4464 652.711 89.8667ZM647.1 90.7281C647.93 91.5586 648.52 92.3828 648.41 92.5601C648.293 92.7495 647.875 92.4737 647.395 91.8894C646.946 91.3432 646.165 90.5212 645.659 90.0623C645.128 89.5805 644.919 89.226 645.165 89.2232C645.398 89.2205 646.269 89.8978 647.1 90.7281ZM631.101 90.4999C631.69 91.0897 631.538 91.2642 630.285 91.4323C629.636 91.5196 628.16 92.0523 627.005 92.6168C625.851 93.181 624.804 93.6884 624.678 93.7442C624.552 93.8004 624.449 93.6381 624.449 93.3836C624.449 92.7749 625.865 91.7893 628.035 90.888C630.041 90.0547 630.586 89.9857 631.101 90.4999ZM646.229 91.583C647.004 92.3803 647.638 93.2271 647.638 93.4647C647.638 93.7024 647.604 93.8364 647.562 93.7626C647.52 93.689 646.735 92.8423 645.818 91.8812C644.901 90.92 644.301 90.1337 644.485 90.1337C644.669 90.1337 645.454 90.7858 646.229 91.583ZM645.898 92.8048C646.535 93.5578 646.972 94.2587 646.869 94.3615C646.765 94.4647 646.45 94.2572 646.168 93.9008C645.886 93.5441 645.184 92.6714 644.608 91.9614C643.234 90.2652 644.39 91.0216 645.898 92.8048ZM644.688 93.1187C645.471 94.0054 646.105 94.9666 646.097 95.2546C646.084 95.6626 645.966 95.6095 645.564 95.0157C645.279 94.5962 644.428 93.5841 643.673 92.7666C642.917 91.9489 642.516 91.331 642.781 91.3936C643.046 91.4558 643.904 92.2324 644.688 93.1187ZM632.169 93.4138C632.424 94.0433 632.919 95.2201 633.269 96.0293L633.905 97.5003L634.745 96.9224C635.208 96.6045 636.41 95.8884 637.417 95.3306C638.424 94.7731 639.548 94.1205 639.916 93.8803C640.537 93.4745 640.682 93.534 641.975 94.7264C642.741 95.4316 643.367 96.174 643.367 96.3759C643.367 96.9938 639.084 100.917 636.558 102.613C633.493 104.672 632.602 104.824 631.077 103.549C629.808 102.488 628.203 100.223 626.509 97.1033C625.487 95.2204 625.444 95.0392 625.92 94.623C626.9 93.7641 630.175 92.3593 631.357 92.29C631.549 92.2787 631.914 92.7846 632.169 93.4138ZM642.81 92.8566C643.884 93.7012 645.268 95.8002 645.148 96.401C645.076 96.7583 644.674 96.3988 643.824 95.2174C643.153 94.2843 642.295 93.3534 641.917 93.1487C641.54 92.9442 641.231 92.6626 641.231 92.5231C641.231 92.0792 642.039 92.2497 642.81 92.8566ZM647.208 102.698C648.477 105.201 648.863 106.484 648.467 106.88C647.894 107.453 647.409 107.262 647.196 106.382C647.084 105.92 646.579 104.74 646.074 103.759C645.568 102.778 645.228 101.783 645.319 101.547C645.65 100.683 646.427 101.157 647.208 102.698ZM643.301 102.03C644.298 102.483 644.748 102.932 645.201 103.93C645.527 104.649 645.797 105.407 645.801 105.614C645.809 106.087 643.237 107.408 641.774 107.682C640.911 107.844 640.32 107.713 639.045 107.073C636.129 105.612 635.705 104.78 637.874 104.78C639.505 104.78 639.714 104.227 638.127 104.111L636.841 104.017L638.197 103.121C641.103 101.202 641.357 101.148 643.301 102.03ZM628.573 102.873C629.565 103.999 629.516 104.197 628.339 103.822C627.794 103.648 627.173 103.452 626.959 103.387C626.646 103.291 626.646 103.149 626.956 102.651C627.463 101.839 627.691 101.871 628.573 102.873ZM628.488 104.737C632.543 105.774 633.605 106 634.431 106C635.053 106 635.165 106.086 634.896 106.354C634.664 106.586 632.609 106.76 628.964 106.855C622.742 107.018 623.068 107.172 625.025 105.009C625.926 104.012 625.72 104.028 628.488 104.737ZM637.599 108.049C638.086 108.337 638.481 108.646 638.477 108.736C638.473 108.826 637.909 109.311 637.223 109.814C634.151 112.069 631.231 116.355 627.628 123.897C625.151 129.081 623.226 133.59 621.451 138.359C620.792 140.13 619.985 142.103 619.657 142.743L619.06 143.906L618.251 141.048C616.177 133.72 615.612 125.466 616.833 120.341C617.444 117.776 619.587 113.462 622.249 109.441L623.304 107.847L627.004 108.013C629.039 108.104 631.528 108.048 632.535 107.889C635.374 107.441 636.636 107.481 637.599 108.049ZM632.23 110.882C631.726 111.216 631.451 111.488 631.619 111.488C631.787 111.488 632.336 111.216 632.84 110.882C633.343 110.549 633.618 110.276 633.45 110.276C633.282 110.276 632.733 110.549 632.23 110.882Z" fill="#863AC1"/>
<path d="M347.332 120.9C345.884 122.348 343.245 119.348 342.831 118.236C342.03 116.037 341.59 112.778 343.478 110.967C343.918 110.527 345.366 110.424 346.867 110.45C347.487 111.355 348.005 112.338 348.367 113.399C349.246 115.856 349.35 118.882 347.332 120.9ZM320.716 111.666C322.371 114.821 321.957 116.684 319.5 118.494C317.068 116.684 316.655 114.821 318.31 111.666C318.646 111.019 319.06 110.372 319.5 109.751C319.966 110.372 320.379 111.019 320.716 111.666ZM295.548 110.967C297.41 112.778 296.97 116.037 296.194 118.236C295.78 119.348 293.142 122.348 291.694 120.9C289.676 118.882 289.754 115.856 290.659 113.399C291.021 112.338 291.538 111.355 292.133 110.45C293.659 110.424 295.108 110.527 295.548 110.967ZM400.876 106.182C397.875 100.621 391.202 99.198 385.408 100.724C380.803 101.94 374.777 104.914 374.052 110.191C373.431 114.718 376.768 118.029 381.217 118.029C383.209 118.055 385.278 117.408 386.753 116.037C388.305 114.614 389.805 111.071 389.21 109.027C388.615 107.061 386.442 106.518 384.657 107.398C383.312 108.07 382.278 110.01 382.717 111.717C383.054 113.011 384.942 113.528 385.227 114.795C385.666 116.942 383.209 116.787 381.735 116.27C379.639 115.52 377.648 113.89 377.156 111.614C375.164 102.224 387.632 100.672 393.866 105.121C399.453 109.079 400.126 115.416 396.789 120.977C392.21 128.608 381.114 126.228 374.699 121.184C369.655 117.149 366.654 112.286 360.395 109.984C357.187 108.794 353.281 108.717 349.738 108.794C346.298 104.035 339.883 101.164 334.192 101.655C328.915 102.121 323.742 104.604 319.707 108.018C319.629 108.07 319.578 108.148 319.5 108.199C319.448 108.148 319.371 108.07 319.319 108.018C315.284 104.604 310.085 102.121 304.834 101.655C299.143 101.164 292.728 104.035 289.288 108.794C285.744 108.717 281.838 108.794 278.605 109.984C272.371 112.286 269.371 117.149 264.301 121.184C257.912 126.228 246.815 128.608 242.237 120.977C238.874 115.416 239.573 109.079 245.16 105.121C251.394 100.672 263.861 102.224 261.87 111.614C261.378 113.89 259.386 115.52 257.265 116.27C255.817 116.787 253.359 116.942 253.799 114.795C254.084 113.528 255.972 113.011 256.308 111.717C256.748 110.01 255.713 108.07 254.368 107.398C252.583 106.518 250.385 107.061 249.816 109.027C249.221 111.071 250.721 114.614 252.273 116.037C253.747 117.408 255.817 118.055 257.809 118.029C262.258 118.029 265.594 114.718 264.973 110.191C264.249 104.914 258.197 101.94 253.618 100.724C247.824 99.198 241.151 100.621 238.15 106.182C235.305 111.459 237.736 119.322 242.108 123.021C246.505 126.746 252.014 128.789 257.783 128.375C264.534 127.884 269.138 122.504 273.691 118.132C277.855 114.123 282.589 110.76 288.046 110.864C287.71 111.562 287.4 112.312 287.193 113.062C286.003 117.434 289.21 120.408 292.78 122.064C297.332 124.185 299.919 120.227 299.867 115.882C299.816 112.39 296.091 110.165 293.013 109.312C297.358 104.242 305.299 102.405 311.481 103.983C314.249 104.682 316.887 106.57 318.802 108.872C314.999 112.7 313.809 118.313 319.396 122.116C319.448 122.141 319.474 122.167 319.5 122.141C319.552 122.167 319.578 122.141 319.629 122.116C325.191 118.313 324.027 112.7 320.224 108.872C322.138 106.57 324.777 104.682 327.544 103.983C333.701 102.405 341.667 104.242 345.987 109.312C342.909 110.165 339.21 112.39 339.158 115.882C339.081 120.227 341.667 124.185 346.246 122.064C349.815 120.408 353.023 117.434 351.807 113.062C351.6 112.312 351.316 111.562 350.979 110.864C356.411 110.76 361.171 114.123 365.335 118.132C369.888 122.504 374.492 127.884 381.243 128.375C386.985 128.789 392.521 126.746 396.892 123.021C401.29 119.322 403.721 111.459 400.876 106.182Z" fill="#863AC1"/>
<path d="M234.453 111.654L201.861 110.878L234.479 109.895C234.634 108.912 234.996 108.006 235.591 107.256L106 111.162L235.436 114.292C234.892 113.516 234.556 112.611 234.453 111.654Z" fill="#863AC1"/>
<path d="M405.262 111.646L437.879 110.87L405.262 109.887C405.106 108.904 404.718 107.999 404.149 107.249L533.74 111.155L404.279 114.285C404.822 113.509 405.158 112.603 405.262 111.646Z" fill="#863AC1"/>
<path d="M438.374 359.692H428.751L427.303 364.244H420.784L429.993 338.688H437.236L446.444 364.244H439.822L438.374 359.692ZM436.718 354.932L433.614 345.517L430.407 354.932H436.718Z" fill="#863AC1"/>
<path d="M492.467 338.688L485.742 364.244H478.292L474.153 347.379L469.911 364.244H462.358L455.943 338.688H462.565L466.29 357.312L470.843 338.688H477.671L482.017 357.312L485.742 338.688H492.467Z" fill="#863AC1"/>
<path d="M502.017 343.655V348.828H510.398V353.691H502.017V359.278H511.433V364.244H495.809V338.688H511.433V343.655H502.017Z" fill="#863AC1"/>
<path d="M525.187 338.688C527.877 338.688 530.205 339.257 532.222 340.344C534.292 341.378 535.87 342.879 536.982 344.793C538.068 346.733 538.637 348.931 538.637 351.415C538.637 353.975 538.068 356.226 536.982 358.14C535.87 360.08 534.292 361.606 532.222 362.692C530.205 363.727 527.877 364.244 525.187 364.244H515.668V338.688H525.187ZM524.876 358.864C527.204 358.864 529.041 358.243 530.36 357.002C531.653 355.708 532.326 353.846 532.326 351.415C532.326 349.087 531.653 347.25 530.36 345.931C529.041 344.638 527.204 343.965 524.876 343.965H521.876V358.864H524.876Z" fill="#863AC1"/>
<path d="M557.944 348.819V353.992H541.907V348.819H557.944Z" fill="#863AC1"/>
<path d="M581.975 338.688V343.655H575.146V364.244H568.938V343.655H562.11V338.688H581.975Z" fill="#863AC1"/>
<path d="M591.489 343.655V348.828H599.87V353.691H591.489V359.278H600.904V364.244H585.281V338.688H600.904V343.655H591.489Z" fill="#863AC1"/>
<path d="M604.14 351.401C604.14 348.866 604.657 346.616 605.692 344.676C606.778 342.684 608.304 341.132 610.244 340.02C612.236 338.934 614.486 338.365 616.969 338.365C619.996 338.365 622.582 339.192 624.729 340.848C626.928 342.451 628.376 344.624 629.075 347.366H622.246C621.755 346.28 621.03 345.452 620.073 344.883C619.091 344.34 618.03 344.055 616.866 344.055C614.926 344.055 613.374 344.754 612.21 346.124C611.02 347.444 610.451 349.203 610.451 351.401C610.451 353.626 611.02 355.411 612.21 356.781C613.374 358.101 614.926 358.747 616.866 358.747C618.03 358.747 619.091 358.489 620.073 357.92C621.03 357.376 621.755 356.575 622.246 355.54H629.075C628.376 358.308 626.928 360.48 624.729 362.058C622.582 363.662 619.996 364.438 616.969 364.438C614.486 364.438 612.236 363.895 610.244 362.782C608.304 361.696 606.778 360.17 605.692 358.23C604.657 356.238 604.14 353.962 604.14 351.401Z" fill="#863AC1"/>
<path d="M655.209 338.688V364.244H649.001V353.691H639.275V364.244H633.067V338.688H639.275V348.724H649.001V338.688H655.209Z" fill="#863AC1"/>
<path d="M687.153 346.862C687.153 348.388 686.791 349.759 686.118 351.001C685.42 352.191 684.385 353.148 683.015 353.898C681.618 354.674 679.859 355.036 677.738 355.036H673.91V364.244H667.702V338.688H677.738C679.807 338.688 681.514 339.05 682.911 339.723C684.36 340.421 685.42 341.378 686.118 342.62C686.791 343.862 687.153 345.284 687.153 346.862ZM677.324 350.069C678.488 350.069 679.341 349.811 679.911 349.242C680.531 348.699 680.842 347.897 680.842 346.862C680.842 345.905 680.531 345.155 679.911 344.586C679.341 343.965 678.488 343.655 677.324 343.655H673.91V350.069H677.324Z" fill="#863AC1"/>
<path d="M696.835 359.485H705.009V364.244H690.628V338.688H696.835V359.485Z" fill="#863AC1"/>
<path d="M724.057 359.692H714.435L712.987 364.244H706.468L715.677 338.688H722.919L732.128 364.244H725.506L724.057 359.692ZM722.402 354.932L719.298 345.517L716.091 354.932H722.402Z" fill="#863AC1"/>
<path d="M753.572 338.688V343.655H746.744V364.244H740.536V343.655H733.707V338.688H753.572Z" fill="#863AC1"/>
<path d="M773.536 338.688V343.655H763.086V349.035H770.846V353.898H763.086V364.244H756.878V338.688H773.536Z" fill="#863AC1"/>
<path d="M788.992 364.427C786.56 364.427 784.362 363.883 782.37 362.771C780.353 361.685 778.775 360.133 777.611 358.115C776.421 356.123 775.852 353.873 775.852 351.39C775.852 348.855 776.421 346.605 777.611 344.665C778.775 342.673 780.353 341.121 782.37 340.009C784.362 338.845 786.56 338.25 788.992 338.25C791.398 338.25 793.596 338.845 795.614 340.009C797.605 341.121 799.157 342.673 800.27 344.665C801.434 346.605 802.029 348.855 802.029 351.39C802.029 353.873 801.434 356.123 800.27 358.115C799.08 360.133 797.502 361.685 795.51 362.771C793.57 363.883 791.398 364.427 788.992 364.427ZM788.992 358.839C790.984 358.839 792.613 358.167 793.855 356.77C795.096 355.399 795.717 353.614 795.717 351.39C795.717 349.114 795.096 347.329 793.855 346.01C792.613 344.639 790.984 343.94 788.992 343.94C786.923 343.94 785.267 344.639 784.026 346.01C782.784 347.329 782.163 349.114 782.163 351.39C782.163 353.614 782.784 355.399 784.026 356.77C785.267 358.167 786.923 358.839 788.992 358.839Z" fill="#863AC1"/>
<path d="M818.751 364.244L813.37 354.622H811.922V364.244H805.714V338.688H816.164C818.156 338.688 819.837 339.05 821.234 339.723C822.682 340.421 823.743 341.378 824.441 342.62C825.191 343.862 825.579 345.258 825.579 346.759C825.579 348.414 825.088 349.94 824.131 351.311C823.148 352.63 821.751 353.561 819.889 354.105L825.786 364.244H818.751ZM811.922 350.173H815.75C816.914 350.173 817.768 349.914 818.337 349.345C818.88 348.802 819.164 348 819.164 346.966C819.164 346.008 818.88 345.258 818.337 344.689C817.768 344.146 816.914 343.862 815.75 343.862H811.922V350.173Z" fill="#863AC1"/>
<path d="M858.61 338.688V364.244H852.299V348.931L846.608 364.244H841.642L835.848 348.828V364.244H829.64V338.688H836.986L844.125 356.381L851.264 338.688H858.61Z" fill="#863AC1"/>
<path d="M990.86 120.667C989.411 122.116 986.773 119.115 986.359 118.003C985.557 115.804 985.118 112.545 987.006 110.734C987.446 110.295 988.894 110.191 990.394 110.217C991.015 111.122 991.533 112.105 991.895 113.166C992.774 115.623 992.878 118.649 990.86 120.667ZM964.243 111.433C965.899 114.588 965.485 116.451 963.028 118.261C960.596 116.451 960.182 114.588 961.838 111.433C962.174 110.786 962.588 110.139 963.028 109.519C963.493 110.139 963.907 110.786 964.243 111.433ZM939.075 110.734C940.938 112.545 940.498 115.804 939.722 118.003C939.308 119.115 936.67 122.116 935.221 120.667C933.204 118.649 933.281 115.623 934.187 113.166C934.549 112.105 935.066 111.122 935.661 110.217C937.187 110.191 938.636 110.295 939.075 110.734ZM1044.4 105.949C1041.4 100.388 1034.73 98.9651 1028.94 100.491C1024.33 101.707 1018.3 104.682 1017.58 109.958C1016.96 114.485 1020.3 117.796 1024.74 117.796C1026.74 117.822 1028.81 117.175 1030.28 115.804C1031.83 114.382 1033.33 110.838 1032.74 108.794C1032.14 106.829 1029.97 106.285 1028.19 107.165C1026.84 107.837 1025.81 109.777 1026.25 111.484C1026.58 112.778 1028.47 113.295 1028.75 114.563C1029.19 116.71 1026.74 116.554 1025.26 116.037C1023.17 115.287 1021.18 113.657 1020.68 111.381C1018.69 101.992 1031.16 100.44 1037.39 104.889C1042.98 108.846 1043.65 115.183 1040.32 120.745C1035.74 128.375 1024.64 125.996 1018.23 120.952C1013.18 116.916 1010.18 112.054 1003.92 109.751C1000.72 108.562 996.809 108.484 993.266 108.562C989.825 103.802 983.41 100.931 977.72 101.422C972.443 101.888 967.27 104.371 963.235 107.786C963.157 107.837 963.105 107.915 963.028 107.967C962.976 107.915 962.898 107.837 962.847 107.786C958.812 104.371 953.612 101.888 948.361 101.422C942.671 100.931 936.256 103.802 932.816 108.562C929.272 108.484 925.366 108.562 922.133 109.751C915.899 112.054 912.899 116.916 907.829 120.952C901.44 125.996 890.343 128.375 885.765 120.745C882.402 115.183 883.1 108.846 888.688 104.889C894.921 100.44 907.389 101.992 905.397 111.381C904.906 113.657 902.914 115.287 900.793 116.037C899.345 116.554 896.887 116.71 897.327 114.563C897.612 113.295 899.5 112.778 899.836 111.484C900.276 109.777 899.241 107.837 897.896 107.165C896.111 106.285 893.913 106.829 893.344 108.794C892.749 110.838 894.249 114.382 895.801 115.804C897.275 117.175 899.345 117.822 901.336 117.796C905.785 117.796 909.122 114.485 908.501 109.958C907.777 104.682 901.724 101.707 897.146 100.491C891.352 98.9651 884.678 100.388 881.678 105.949C878.833 111.226 881.264 119.089 885.635 122.788C890.033 126.513 895.542 128.556 901.31 128.142C908.062 127.651 912.666 122.271 917.218 117.899C921.383 113.89 926.116 110.527 931.574 110.631C931.238 111.329 930.927 112.079 930.721 112.83C929.531 117.201 932.738 120.176 936.308 121.831C940.86 123.952 943.447 119.995 943.395 115.649C943.343 112.157 939.619 109.933 936.541 109.079C940.886 104.009 948.827 102.173 955.009 103.75C957.777 104.449 960.415 106.337 962.329 108.639C958.527 112.467 957.337 118.08 962.924 121.883C962.976 121.909 963.002 121.935 963.028 121.909C963.079 121.935 963.105 121.909 963.157 121.883C968.718 118.08 967.554 112.467 963.752 108.639C965.666 106.337 968.305 104.449 971.072 103.75C977.228 102.173 985.195 104.009 989.515 109.079C986.437 109.933 982.738 112.157 982.686 115.649C982.609 119.995 985.195 123.952 989.774 121.831C993.343 120.176 996.551 117.201 995.335 112.83C995.128 112.079 994.843 111.329 994.507 110.631C999.939 110.527 1004.7 113.89 1008.86 117.899C1013.42 122.271 1018.02 127.651 1024.77 128.142C1030.51 128.556 1036.05 126.513 1040.42 122.788C1044.82 119.089 1047.25 111.226 1044.4 105.949Z" fill="#863AC1"/>
<path d="M877.924 111.952L845.849 111.202L877.924 110.219C878.079 109.288 878.441 108.382 879.036 107.632L751.592 111.486L878.881 114.539C878.338 113.788 878.027 112.883 877.924 111.952Z" fill="#863AC1"/>
<path d="M1047.4 111.429L1079.45 110.679L1047.37 109.696C1047.22 108.765 1046.85 107.86 1046.28 107.109L1173.7 110.964L1046.41 114.016C1046.96 113.266 1047.27 112.36 1047.4 111.429Z" fill="#863AC1"/>
</svg>
