<svg width="249" height="76" viewBox="0 0 249 76" fill="none" xmlns="http://www.w3.org/2000/svg">
<path d="M16.3996 41.2416C16.3996 42.2077 16.1782 43.0882 15.7354 43.8782C15.2926 44.6733 14.6133 45.3173 13.7025 45.8105C12.7868 46.2935 11.6546 46.535 10.301 46.535H7.80524V52.4927H3.75965V35.9078H10.301C11.6294 35.9078 12.7465 36.1393 13.6623 36.5922C14.5731 37.05 15.2574 37.679 15.7153 38.4841C16.1681 39.2892 16.3996 40.21 16.3996 41.2416ZM9.99912 43.3147C10.764 43.3147 11.3326 43.1335 11.7099 42.7712C12.0974 42.4089 12.2936 41.9007 12.2936 41.2416C12.2936 40.5874 12.0974 40.0742 11.7099 39.7119C11.3326 39.3496 10.764 39.1684 9.99912 39.1684H7.80524V43.3147H9.99912Z" fill="black"/>
<path d="M22.5467 49.373H27.8402V52.4927H18.5011V35.9078H22.5467V49.373Z" fill="black"/>
<path d="M40.1055 49.5541H33.9063L32.9201 52.4927H28.6933L34.6913 35.9078H39.3608L45.3789 52.4927H41.0918L40.1055 49.5541ZM39.0589 46.4344L37.0059 40.3761L34.9731 46.4344H39.0589Z" fill="black"/>
<path d="M62.0296 52.4927H57.9841L51.2414 42.2681V52.4927H47.1958V35.9078H51.2414L57.9841 46.1929V35.9078H62.0296V52.4927Z" fill="black"/>
<path d="M80.291 49.5541H74.0918L73.1056 52.4927H68.8789L74.8768 35.9078H79.5463L85.5644 52.4927H81.2773L80.291 49.5541ZM79.2444 46.4344L77.1914 40.3761L75.1586 46.4344H79.2444Z" fill="black"/>
<path d="M115.2 35.9078L110.873 52.4927H105.982L103.345 41.5837L100.588 52.4927H95.6968L91.4902 35.9078H95.8176L98.2127 47.9842L101.171 35.9078H105.599L108.437 47.9842L110.853 35.9078H115.2Z" fill="black"/>
<path d="M121.286 39.1483V42.4895H126.68V45.6092H121.286V49.2522H127.405V52.4927H117.241V35.9078H127.405V39.1483H121.286Z" fill="black"/>
<path d="M136.233 35.9078C137.974 35.9078 139.499 36.2601 140.802 36.9544C142.115 37.6388 143.127 38.6149 143.841 39.8729C144.566 41.1208 144.928 42.5649 144.928 44.2003C144.928 45.8256 144.566 47.2697 143.841 48.5276C143.127 49.7906 142.115 50.7718 140.802 51.4662C139.483 52.1506 137.964 52.4927 136.233 52.4927H130.014V35.9078H136.233ZM135.971 48.9906C137.501 48.9906 138.688 48.578 139.534 47.7427C140.379 46.9124 140.802 45.7299 140.802 44.2003C140.802 42.6706 140.379 41.4831 139.534 40.6377C138.688 39.7823 137.501 39.3496 135.971 39.3496H134.059V48.9906H135.971Z" fill="black"/>
<path d="M153.421 35.9078C155.162 35.9078 156.687 36.2601 157.99 36.9544C159.303 37.6388 160.315 38.6149 161.029 39.8729C161.754 41.1208 162.116 42.5649 162.116 44.2003C162.116 45.8256 161.754 47.2697 161.029 48.5276C160.315 49.7906 159.303 50.7718 157.99 51.4662C156.672 52.1506 155.152 52.4927 153.421 52.4927H147.202V35.9078H153.421ZM153.159 48.9906C154.689 48.9906 155.877 48.578 156.722 47.7427C157.567 46.9124 157.99 45.7299 157.99 44.2003C157.99 42.6706 157.567 41.4831 156.722 40.6377C155.877 39.7823 154.689 39.3496 153.159 39.3496H151.247V48.9906H153.159Z" fill="black"/>
<path d="M168.413 35.9078V52.4927H164.368V35.9078H168.413Z" fill="black"/>
<path d="M186.175 52.4927H182.129L175.387 42.2681V52.4927H171.341V35.9078H175.387L182.129 46.1929V35.9078H186.175V52.4927Z" fill="black"/>
<path d="M200.112 41.1444C199.815 40.5959 199.387 40.1783 198.823 39.8965C198.26 39.6047 197.601 39.4537 196.851 39.4537C195.533 39.4537 194.481 39.8864 193.691 40.7419C192.911 41.6023 192.524 42.7495 192.524 44.1836C192.524 45.7133 192.931 46.9109 193.751 47.7663C194.582 48.6267 195.724 49.0544 197.173 49.0544C198.164 49.0544 199.005 48.8028 199.689 48.2896C200.373 47.7814 200.876 47.0568 201.199 46.1158H196.066V43.137H204.862V46.9008C204.565 47.9072 204.057 48.8481 203.332 49.7186C202.618 50.5791 201.707 51.2785 200.595 51.8119C199.493 52.3503 198.25 52.617 196.871 52.617C195.231 52.617 193.772 52.2647 192.483 51.5502C191.205 50.8256 190.209 49.8293 189.484 48.5512C188.77 47.2782 188.418 45.824 188.418 44.1836C188.418 42.5483 188.77 41.084 189.484 39.7959C190.209 38.5077 191.205 37.5114 192.483 36.7969C193.756 36.0723 195.211 35.71 196.851 35.71C198.834 35.71 200.504 36.1931 201.863 37.1592C203.231 38.1253 204.137 39.4537 204.58 41.1444H200.112Z" fill="black"/>
<path d="M5.57097 58.6051H201.153H5.57097Z" fill="black"/>
<path fill-rule="evenodd" clip-rule="evenodd" d="M106.375 4.47461C108.785 4.64514 110.219 4.98222 111.789 5.74727C113.446 6.55451 114.612 7.80212 115.296 9.49703C115.731 10.578 115.915 11.6318 115.915 13.0388C115.915 14.6905 115.445 15.898 114.671 17.1455C114.283 17.7713 114.016 18.1033 113.35 18.7866C112.638 19.5171 111.842 20.0864 110.765 20.6368C109.601 21.2316 108.533 21.5512 106.939 21.7821C106.295 21.8752 103.763 21.9719 103.763 21.9033C103.763 21.8802 103.804 21.7825 103.854 21.6862C103.935 21.5293 103.974 21.5111 104.228 21.5111C104.726 21.5111 106.384 21.2805 106.984 21.1279C109.967 20.3684 112.013 18.18 112.66 15.0588C113.027 13.2862 112.945 11.2235 112.446 9.67065C111.971 8.19476 111.088 6.9922 109.921 6.23149C109.343 5.85452 109.052 5.72073 108.304 5.48675C106.693 4.98317 105.325 4.88945 100.261 4.93563L97.4407 4.96399V22.3983C97.4407 22.3983 97.4407 26.3745 97.4407 29.0661C97.4407 30.9013 97.7647 31.7405 98.4195 32.0024C98.7253 32.1248 98.7871 32.166 99.0312 32.2471C99.4492 32.3861 100.132 32.4918 100.132 32.4918H92.0575C92.0575 32.4918 92.519 32.3117 92.6692 32.2471C92.9327 32.134 93.0062 32.0792 93.1586 32.0024C94.1516 31.5022 94.6268 30.9013 94.6268 29.0661C94.6268 27.7203 94.6483 9.12375 94.6483 7.9003C94.5393 6.6458 94.1848 5.76578 93.7741 5.32073C93.5159 5.04099 93.0974 4.84165 92.7916 4.7193C92.673 4.67186 92.0575 4.47462 92.0575 4.47462C92.0575 4.47462 105.271 4.47461 106.375 4.47461ZM104.891 6.97677C104.891 7.06646 104.923 7.15965 104.962 7.18374C105.001 7.20784 105.278 7.24613 105.577 7.26874C106.254 7.31997 106.813 7.50219 107.286 7.8258C107.778 8.16253 108.006 8.52852 108.003 8.98069C108.002 9.16369 107.967 9.37636 107.925 9.45329L107.848 9.59313L107.66 9.41197C107.385 9.14547 106.887 8.94443 106.315 8.86881C104.716 8.6572 104.581 8.61886 104.298 8.29614C104.1 8.07106 104.088 7.96909 104.202 7.53294C104.253 7.34033 104.263 7.17407 104.23 7.0585C104.159 6.81223 104.166 6.73139 104.256 6.73139C104.354 6.73139 104.668 7.0531 104.619 7.10249C104.599 7.12249 104.638 7.12415 104.707 7.10628C104.775 7.08836 104.83 7.05678 104.829 7.03607C104.827 7.01541 104.694 6.8964 104.532 6.77157C104.37 6.64675 104.238 6.504 104.238 6.45426C104.238 6.40458 104.294 6.28491 104.363 6.18834L104.488 6.01282L104.689 6.41318C104.8 6.63345 104.891 6.88702 104.891 6.97677ZM104.088 8.34885C104.199 8.8383 104.225 9.01132 104.197 9.08326C104.075 9.40052 103.81 8.74772 103.905 8.36647C103.952 8.1795 104.047 8.1703 104.088 8.34885ZM104.445 8.63002C104.513 8.73923 105.274 8.9224 105.913 8.98324C106.263 9.0166 106.716 9.1 106.919 9.16855C107.322 9.30424 107.74 9.59574 107.74 9.7411C107.74 9.82118 107.723 9.82034 107.606 9.7341C107.312 9.51769 106.853 9.34324 106.432 9.28834C106.188 9.25646 105.748 9.20055 105.455 9.16398C104.861 9.09009 104.459 8.94122 104.362 8.759C104.326 8.69276 104.297 8.62349 104.297 8.60503C104.297 8.549 104.406 8.56745 104.445 8.63002ZM103.112 9.10801C103.249 9.24441 103.347 9.47068 103.347 9.64708C103.347 9.76099 103.341 9.76158 103.177 9.66483C102.982 9.5495 102.813 9.29273 102.813 9.11134C102.813 8.95238 102.955 8.95084 103.112 9.10801ZM105.11 9.40871C105.711 9.57253 105.877 9.66192 105.99 9.88023C106.102 10.0958 106.162 10.068 106.323 9.72644C106.482 9.38639 106.647 9.33196 106.839 9.5552C106.969 9.70674 106.98 9.75962 106.948 10.0959L106.914 10.4686L107.163 10.6123C107.301 10.6913 107.498 10.7735 107.601 10.795C107.739 10.8236 107.799 10.8758 107.828 10.9922C107.85 11.0826 107.842 11.1591 107.807 11.1705C107.679 11.2132 106.762 11.7911 106.566 11.9525L106.36 12.1225L106.091 11.8096L105.784 11.9535C105.434 12.1174 105.324 12.0873 105.221 11.7987C105.186 11.701 105.098 11.5575 105.024 11.4799C104.951 11.4023 104.891 11.3171 104.891 11.2906C104.891 11.2641 104.812 11.2425 104.716 11.2425C104.62 11.2425 104.527 11.2188 104.509 11.1898C104.491 11.1608 104.506 10.991 104.542 10.8124C104.601 10.5189 104.592 10.4447 104.452 10.039C104.303 9.60642 104.254 9.22791 104.337 9.14499C104.359 9.12315 104.438 9.14505 104.512 9.19378C104.586 9.24251 104.855 9.3392 105.11 9.40871ZM102.398 9.40396C102.512 9.43708 102.656 9.50237 102.717 9.54909C102.824 9.6313 102.823 9.64233 102.675 9.89561C102.431 10.3107 102.014 10.7931 101.581 11.1585C101.098 11.5666 100.966 11.7551 101.36 11.4748C101.999 11.0206 102.671 10.2954 102.863 9.85281C102.934 9.69077 102.944 9.6862 103.038 9.77992C103.132 9.87365 103.129 9.89662 102.996 10.1478C102.808 10.5015 102.289 11.0506 101.775 11.4394C101.312 11.7889 101.265 11.9002 101.392 12.3535C101.481 12.6704 101.386 13.032 101.177 13.1686C101.059 13.2458 101.035 13.2458 100.971 13.1682C100.912 13.0975 100.917 13.0587 100.997 12.97C101.086 12.8723 101.087 12.8558 101.005 12.8246C100.876 12.775 100.892 12.5907 101.033 12.5027C101.189 12.4048 101.182 12.2983 101 12.0101C100.802 11.6952 100.75 11.5503 100.679 11.1137C100.572 10.4454 100.797 9.9019 101.303 9.60494C101.722 9.35956 102.042 9.3008 102.398 9.40396ZM103.407 9.93662C103.407 9.96927 103.38 9.99598 103.347 9.99598C103.315 9.99598 103.288 9.96927 103.288 9.93662C103.288 9.90398 103.315 9.87727 103.347 9.87727C103.38 9.87727 103.407 9.90398 103.407 9.93662ZM103.595 10.2129C103.655 10.2669 103.703 10.3805 103.701 10.4652L103.699 10.6192L103.523 10.4137C103.427 10.3007 103.347 10.1872 103.347 10.1615C103.347 10.082 103.481 10.1098 103.595 10.2129ZM100.236 10.4761C100.244 10.7888 100.215 10.8293 100.035 10.7605C99.8423 10.6874 99.7913 10.612 99.8313 10.4593C99.8617 10.343 100.058 10.2266 100.172 10.2574C100.205 10.2663 100.234 10.3647 100.236 10.4761ZM100.558 10.2928C100.558 10.3254 100.516 10.3521 100.465 10.3521C100.414 10.3521 100.389 10.3254 100.409 10.2928C100.43 10.2601 100.471 10.2334 100.502 10.2334C100.533 10.2334 100.558 10.2601 100.558 10.2928ZM103.481 10.5854C103.571 10.7124 103.644 10.8521 103.645 10.8958C103.645 11.1065 103.788 11.4447 103.957 11.6371L104.144 11.8504L104.008 11.9603C103.934 12.0207 103.888 12.0958 103.908 12.127C103.927 12.1583 103.918 12.1992 103.888 12.2178C103.858 12.2364 103.847 12.302 103.863 12.3636C103.879 12.4252 103.865 12.4924 103.831 12.513C103.797 12.5341 103.786 12.6434 103.805 12.763C103.85 13.0397 103.772 13.0877 103.301 13.0737C103.096 13.0675 102.901 13.09 102.867 13.1235C102.792 13.1991 102.767 13.883 102.831 14.1151L102.879 14.2869L102.552 14.2532C102.223 14.2192 101.562 13.9622 101.447 13.823C101.403 13.7698 101.413 13.6784 101.481 13.5077C101.569 13.2871 101.589 13.272 101.724 13.3233C101.93 13.4014 101.966 13.3953 102.101 13.2606C102.265 13.0969 102.256 12.7832 102.083 12.5967C101.967 12.4714 101.96 12.4383 102.031 12.3719C102.091 12.316 102.107 12.1945 102.089 11.9417L102.063 11.5895L102.368 11.3292C102.535 11.186 102.802 10.9076 102.96 10.7105C103.118 10.5134 103.263 10.3527 103.283 10.3534C103.302 10.3541 103.391 10.4585 103.481 10.5854ZM100.498 10.5005C100.498 10.5495 100.472 10.5895 100.439 10.5895C100.406 10.5895 100.38 10.5495 100.38 10.5005C100.38 10.4515 100.406 10.4115 100.439 10.4115C100.472 10.4115 100.498 10.4515 100.498 10.5005ZM100.498 10.8863C100.498 10.9843 100.475 11.0644 100.445 11.0644C100.37 11.0644 100.318 10.9029 100.358 10.7973C100.416 10.6465 100.498 10.6987 100.498 10.8863ZM99.8733 11.0856C99.8418 11.2958 99.8531 11.3514 99.9337 11.3824C100.011 11.412 100.024 11.4634 99.993 11.6134C99.9229 11.952 99.6022 12.0778 99.482 11.8138C99.403 11.6404 99.4903 11.4471 99.6739 11.3888C99.7981 11.3494 99.798 11.3484 99.6597 11.2794C99.3968 11.1484 99.4733 10.827 99.7674 10.827C99.9046 10.827 99.9101 10.8404 99.8733 11.0856ZM100.249 11.0558C100.282 11.1491 100.288 11.2585 100.263 11.2991C100.19 11.4163 99.9959 11.3448 99.9743 11.193C99.9288 10.8732 100.147 10.7641 100.249 11.0558ZM100.581 11.277C100.642 11.437 100.621 11.5392 100.526 11.5392C100.419 11.5392 100.353 11.3981 100.401 11.2721C100.446 11.156 100.536 11.1584 100.581 11.277ZM108.273 11.4775C108.339 11.6068 108.393 11.7399 108.393 11.7733C108.393 11.8067 108.255 11.9036 108.087 11.9887C107.92 12.0738 107.482 12.328 107.116 12.5536C106.75 12.7792 106.433 12.9638 106.412 12.9638C106.392 12.9638 106.375 12.8219 106.375 12.6485C106.375 12.2804 106.443 12.1866 106.955 11.8548C107.407 11.5618 107.989 11.2455 108.08 11.2438C108.12 11.2431 108.207 11.3482 108.273 11.4775ZM100.352 11.6431C100.371 11.7329 100.41 11.8497 100.438 11.9026C100.492 12.0032 100.41 12.1328 100.292 12.1328C100.218 12.1328 100.024 11.9202 100.024 11.8392C100.024 11.6986 100.148 11.4799 100.229 11.4799C100.278 11.4799 100.333 11.5525 100.352 11.6431ZM100.676 11.7816C100.676 11.9262 100.538 11.9058 100.509 11.7569C100.497 11.6983 100.528 11.658 100.583 11.658C100.638 11.658 100.676 11.7087 100.676 11.7816ZM101.92 11.8028C102.014 11.9164 101.977 12.1948 101.857 12.2698C101.696 12.3703 101.567 12.2757 101.567 12.0575C101.567 11.7573 101.764 11.615 101.92 11.8028ZM101.775 11.836C101.754 11.8687 101.766 11.8954 101.801 11.8954C101.835 11.8954 101.864 11.8687 101.864 11.836C101.864 11.8034 101.852 11.7767 101.837 11.7767C101.823 11.7767 101.795 11.8034 101.775 11.836ZM100.077 12.0968C100.194 12.2215 100.201 12.2545 100.132 12.3661C100.048 12.5019 99.8335 12.5846 99.7304 12.5209C99.6961 12.4997 99.6402 12.4302 99.6061 12.3665C99.556 12.2731 99.5726 12.2222 99.6921 12.1027C99.8751 11.9197 99.91 11.9192 100.077 12.0968ZM100.88 12.0537C100.941 12.2124 100.803 12.3025 100.704 12.1686C100.658 12.1066 100.635 12.0332 100.652 12.0054C100.705 11.9203 100.84 11.9489 100.88 12.0537ZM108.452 12.0359C108.452 12.0479 108.348 12.1267 108.22 12.211C107.952 12.3884 107.511 12.9399 107.316 13.3401C107.242 13.4922 107.147 13.6167 107.105 13.6167C107.062 13.6167 107.028 13.6008 107.028 13.5814C107.028 13.5279 107.541 12.7768 107.694 12.6062C107.977 12.2911 108.452 11.9338 108.452 12.0359ZM100.676 12.3319C100.756 12.4742 100.756 12.4983 100.676 12.5489C100.535 12.6395 100.43 12.6171 100.397 12.4889C100.38 12.4236 100.342 12.3702 100.313 12.3702C100.236 12.3702 100.249 12.4458 100.352 12.5925C100.435 12.7116 100.433 12.7324 100.322 12.8431C100.17 12.9955 100.104 12.9951 100.022 12.8413C99.9719 12.7486 99.975 12.6947 100.034 12.6195C100.077 12.5649 100.139 12.4845 100.172 12.4409C100.433 12.0918 100.531 12.0708 100.676 12.3319ZM109.156 12.3126C109.34 12.4115 109.558 12.5444 109.639 12.6081L109.788 12.7238L109.58 12.7257C109.152 12.7295 108.643 13.0707 108.286 13.5923C107.903 14.1522 107.697 15.4861 107.771 16.9113L107.812 17.6833L107.642 17.8541C107.451 18.0472 106.679 18.6026 106.603 18.6026C106.54 18.6026 106.544 17.4169 106.608 17.0594C106.634 16.9125 106.739 16.4913 106.842 16.1235C107.045 15.3916 107.061 15.2397 106.96 15.0166C106.903 14.8928 106.919 14.7898 107.055 14.4054C107.303 13.7062 107.518 13.2653 107.789 12.9044C108.065 12.5359 108.545 12.1349 108.711 12.1336C108.772 12.1332 108.972 12.2137 109.156 12.3126ZM101.033 12.3405C101.033 12.3895 100.993 12.4296 100.944 12.4296C100.851 12.4296 100.826 12.3594 100.894 12.2911C100.962 12.2228 101.033 12.2478 101.033 12.3405ZM106.242 12.6377C106.251 12.8171 106.245 12.9638 106.23 12.9638C106.178 12.9638 106.069 12.4784 106.102 12.3937C106.168 12.2211 106.227 12.3234 106.242 12.6377ZM107.585 12.514C107.567 12.5605 107.519 12.6115 107.477 12.6275C107.28 12.7029 106.696 13.7482 106.47 14.428C106.393 14.6616 106.329 14.749 106.196 14.8042C106.1 14.8437 105.992 14.9132 105.954 14.9586C105.787 15.16 105.772 15.0726 105.848 14.3074C105.922 13.5635 106.042 13.3233 106.441 13.1205C106.616 13.031 106.947 12.8409 107.176 12.6979C107.404 12.5551 107.597 12.4362 107.604 12.4339C107.612 12.4315 107.603 12.4676 107.585 12.514ZM102.04 12.8004C102.147 12.9923 102.076 13.1603 101.873 13.1904C101.694 13.2171 101.58 12.9634 101.677 12.7518C101.764 12.5609 101.917 12.5814 102.04 12.8004ZM100.827 12.7924C100.875 12.9445 100.727 13.1147 100.592 13.0628C100.499 13.0272 100.462 12.7825 100.538 12.7066C100.622 12.6229 100.789 12.6726 100.827 12.7924ZM99.7821 14.2157C99.7384 14.9533 99.7249 15.8947 99.7481 16.59C99.7693 17.2235 99.8036 18.5483 99.8245 19.5338L99.8623 21.3256L99.4376 22.1752C98.894 23.2627 98.7792 23.7617 98.7782 25.0428C98.7774 26.2037 98.942 27.2073 99.3193 28.3401L99.4488 28.7289L99.2304 29.1414C99.1102 29.3682 98.8589 29.7462 98.6719 29.9811C98.3382 30.4006 98.3311 30.4055 98.2881 30.2482C98.1231 29.6452 98.0648 28.7934 98.0648 26.9854C98.0648 25.3945 98.0479 25.0092 97.9611 24.6188C97.8793 24.2508 97.8578 23.877 97.8592 22.8466C97.8613 21.3695 97.9007 21.0577 98.2762 19.5523C98.5092 18.6179 98.7464 17.3502 98.9535 15.9316C99.082 15.0521 99.5423 13.0789 99.6783 12.8247C99.8253 12.55 99.8563 12.965 99.7821 14.2157ZM101.893 12.9647C101.872 12.9979 101.831 13.0097 101.8 12.9909C101.77 12.9722 101.745 12.9869 101.745 13.0238C101.745 13.1132 101.996 13.0731 102.027 12.9786C102.056 12.8899 101.946 12.8786 101.893 12.9647ZM110.004 13.1014C110.36 13.3233 110.505 14.6303 110.328 16.0215C110.206 16.9752 109.862 18.5913 109.717 18.8869C109.621 19.0845 109.506 19.1593 108.601 19.6155C108.006 19.9153 107.287 20.2232 106.85 20.3659C105.699 20.7411 105.835 20.7621 105.549 20.1651C105.413 19.8825 105.323 19.6301 105.349 19.6043C105.375 19.5784 105.658 19.4242 105.977 19.2617C106.574 18.9578 107.319 18.4792 107.674 18.1724C107.806 18.058 107.918 18.0082 108 18.0271C108.069 18.0429 108.212 18.0754 108.319 18.0992C108.589 18.16 108.561 18.0539 108.274 17.9272C108.022 17.8158 107.962 17.7123 108.15 17.7123C108.318 17.7123 108.456 17.6481 108.419 17.5873C108.401 17.5581 108.313 17.5342 108.225 17.5342H108.064L108.069 16.1839C108.075 14.7394 108.106 14.5377 108.426 13.9071C108.631 13.5014 108.834 13.2879 109.181 13.114C109.503 12.9519 109.758 12.948 110.004 13.1014ZM106.019 13.1419C106.019 13.1745 105.992 13.2012 105.959 13.2012C105.927 13.2012 105.9 13.1745 105.9 13.1419C105.9 13.1092 105.927 13.0825 105.959 13.0825C105.992 13.0825 106.019 13.1092 106.019 13.1419ZM100.257 13.6612C100.253 14.2666 100.186 14.65 100.064 14.7723C99.9707 14.8652 99.9642 14.857 99.9647 14.6448C99.9652 14.3809 100.072 13.3843 100.112 13.2754C100.126 13.2346 100.166 13.2012 100.2 13.2012C100.237 13.2012 100.26 13.3825 100.257 13.6612ZM105.54 13.7438C105.443 14.0296 105.405 14.3085 105.386 14.8929C105.361 15.6568 105.205 16.6915 105.128 16.6015C105.106 16.5759 104.997 16.2744 104.886 15.9316C104.632 15.1519 104.606 14.5059 104.813 14.1212C105.018 13.7392 105.604 13.1734 105.65 13.3126C105.66 13.3422 105.61 13.5362 105.54 13.7438ZM105.959 13.283C105.959 13.2953 105.919 13.3392 105.869 13.3804C105.793 13.4431 105.784 13.4395 105.816 13.358C105.848 13.2748 105.959 13.2165 105.959 13.283ZM105.788 13.6932C105.739 13.7416 105.722 13.7349 105.722 13.6682C105.722 13.5502 105.802 13.4703 105.831 13.5588C105.844 13.5964 105.824 13.6568 105.788 13.6932ZM107.103 13.7116C107.164 13.7729 107.078 13.9135 106.98 13.9135C106.912 13.9135 106.903 13.9316 106.949 13.9778C107.044 14.0726 106.972 14.2696 106.843 14.2696C106.702 14.2696 106.703 14.25 106.86 13.9349C106.987 13.6813 107.031 13.6402 107.103 13.7116ZM105.781 13.8803C105.781 13.9761 105.697 14.047 105.645 13.9951C105.599 13.9488 105.663 13.7948 105.728 13.7948C105.757 13.7948 105.781 13.8332 105.781 13.8803ZM101.597 14.0856C102.079 14.3915 102.662 14.5018 103.021 14.3552C103.127 14.3121 103.131 14.3178 103.058 14.4069C102.998 14.4815 102.882 14.507 102.605 14.507C102.289 14.507 102.161 14.4709 101.752 14.2659C101.487 14.1333 101.27 13.9998 101.27 13.9692C101.27 13.8867 101.3 13.8972 101.597 14.0856ZM101.418 14.2418C101.516 14.322 101.57 14.3877 101.537 14.3877C101.504 14.3877 101.398 14.322 101.3 14.2418C101.202 14.1615 101.148 14.0958 101.181 14.0958C101.214 14.0958 101.32 14.1615 101.418 14.2418ZM101.372 14.4846C101.358 14.4978 101.245 14.4659 101.121 14.4137C100.955 14.3445 100.915 14.3054 100.975 14.2688C101.051 14.2215 101.429 14.4271 101.372 14.4846ZM105.689 14.334C105.67 14.365 105.629 14.3746 105.598 14.3555C105.567 14.3364 105.557 14.2955 105.576 14.2646C105.596 14.2337 105.636 14.224 105.667 14.2431C105.698 14.2622 105.708 14.3031 105.689 14.334ZM106.849 14.4329C106.848 14.49 106.822 14.5766 106.792 14.6253C106.711 14.7527 106.589 14.6144 106.64 14.4537C106.688 14.303 106.85 14.2869 106.849 14.4329ZM101.918 14.4847C101.932 14.497 101.927 14.5231 101.907 14.5428C101.887 14.5624 101.809 14.5332 101.734 14.4779L101.596 14.3774L101.745 14.4199C101.826 14.4433 101.904 14.4725 101.918 14.4847ZM105.662 14.507C105.662 14.5397 105.636 14.5664 105.603 14.5664C105.57 14.5664 105.544 14.5397 105.544 14.507C105.544 14.4744 105.57 14.4477 105.603 14.4477C105.636 14.4477 105.662 14.4744 105.662 14.507ZM101.318 14.6767C101.73 14.8838 103.417 15.9666 103.488 16.07C103.629 16.2749 103.234 17.298 102.811 17.825L102.616 18.0678L102.503 17.8158C102.441 17.6773 102.336 17.3636 102.271 17.1187C101.969 15.9854 101.736 15.4327 101.471 15.2244C101.256 15.0554 101.211 15.1216 101.404 15.3238C101.489 15.4132 101.613 15.6263 101.68 15.7972C101.823 16.1627 102.055 17.2272 102.008 17.3034C101.99 17.3324 101.916 17.3561 101.844 17.3561C101.693 17.3561 100.889 17.7276 100.828 17.8253C100.741 17.9669 100.658 17.8662 100.378 17.28C99.864 16.2048 99.8706 15.2388 100.395 14.7403C100.685 14.4649 100.87 14.4521 101.318 14.6767ZM102.388 14.8533C102.704 14.9447 102.723 14.9426 103.125 14.775C103.206 14.7413 103.248 14.7762 103.313 14.931C103.411 15.1657 103.526 15.7539 103.473 15.7525C103.453 15.752 103.209 15.6057 102.932 15.4274C102.655 15.2491 102.24 14.9973 102.012 14.8679C101.422 14.5339 101.374 14.492 101.745 14.6355C101.924 14.7049 102.214 14.8029 102.388 14.8533ZM102.131 14.5664C102.151 14.5991 102.139 14.6258 102.104 14.6258C102.07 14.6258 102.042 14.5991 102.042 14.5664C102.042 14.5338 102.053 14.507 102.068 14.507C102.082 14.507 102.111 14.5338 102.131 14.5664ZM103.11 14.5926C103.11 14.607 103.083 14.6353 103.051 14.6554C103.018 14.6756 102.991 14.6638 102.991 14.6293C102.991 14.5947 103.018 14.5664 103.051 14.5664C103.083 14.5664 103.11 14.5782 103.11 14.5926ZM102.695 14.6851C102.695 14.7178 102.666 14.7445 102.632 14.7445C102.597 14.7445 102.585 14.7178 102.606 14.6851C102.626 14.6525 102.654 14.6258 102.668 14.6258C102.683 14.6258 102.695 14.6525 102.695 14.6851ZM102.932 14.6851C102.932 14.7178 102.905 14.7445 102.873 14.7445C102.84 14.7445 102.813 14.7178 102.813 14.6851C102.813 14.6525 102.84 14.6258 102.873 14.6258C102.905 14.6258 102.932 14.6525 102.932 14.6851ZM105.662 14.7445C105.662 14.7771 105.636 14.8038 105.603 14.8038C105.57 14.8038 105.544 14.7771 105.544 14.7445C105.544 14.7118 105.57 14.6851 105.603 14.6851C105.636 14.6851 105.662 14.7118 105.662 14.7445ZM103.707 15.017C103.884 15.3031 104.06 15.9953 104.06 16.4048C104.06 17.141 103.69 18.0059 103.231 18.3429C102.915 18.5747 102.835 18.5878 102.781 18.4174C102.754 18.3324 102.782 18.2409 102.868 18.1355C103.627 17.2005 103.883 16.3496 103.685 15.4271C103.635 15.1985 103.577 14.9648 103.554 14.9077C103.485 14.7325 103.568 14.7921 103.707 15.017ZM106.315 15.3084C106.052 15.7679 106.126 15.8562 106.398 15.408C106.715 14.8864 106.816 15.0022 106.532 15.561C106.41 15.7996 106.359 15.991 106.417 15.991C106.445 15.991 106.544 15.8307 106.637 15.6348C106.73 15.4389 106.83 15.2787 106.859 15.2787C106.916 15.2787 106.867 15.5391 106.777 15.7137C106.747 15.7734 106.681 15.9603 106.631 16.1292C106.501 16.566 106.342 16.8546 106.067 17.1529L105.828 17.4127L105.563 17.2303C105.366 17.0947 105.309 17.0228 105.34 16.9498C105.364 16.8958 105.406 16.6521 105.435 16.4082C105.494 15.9 105.641 15.5549 105.906 15.3048L106.091 15.1303L105.9 15.4156C105.597 15.8681 105.738 15.807 106.118 15.3211C106.308 15.0775 106.472 14.9014 106.483 14.9295C106.494 14.9576 106.418 15.1281 106.315 15.3084ZM105.662 15.0782C105.662 15.1571 105.646 15.1612 105.573 15.1006C105.524 15.06 105.484 15.0166 105.484 15.0043C105.484 14.992 105.524 14.9819 105.573 14.9819C105.622 14.9819 105.662 15.0252 105.662 15.0782ZM104.344 15.4716C104.627 15.8388 104.831 16.4037 104.831 16.8152C104.831 17.1042 104.824 17.1156 104.403 17.4997C104.168 17.7146 103.954 17.8904 103.928 17.8904C103.902 17.8904 103.945 17.7635 104.024 17.6084C104.321 17.0283 104.349 16.1319 104.093 15.408C104.045 15.2716 104.028 15.16 104.055 15.16C104.082 15.16 104.212 15.3002 104.344 15.4716ZM105.662 15.3345C105.662 15.3653 105.636 15.4069 105.603 15.4271C105.57 15.4473 105.544 15.4221 105.544 15.3712C105.544 15.3203 105.57 15.2787 105.603 15.2787C105.636 15.2787 105.662 15.3038 105.662 15.3345ZM105.506 17.4007C105.653 17.5231 105.775 17.6551 105.777 17.6939C105.787 17.8693 105.643 17.8096 105.324 17.5061C105.04 17.2349 105.003 17.1781 105.109 17.1781C105.181 17.1781 105.359 17.2783 105.506 17.4007ZM106.352 17.4823C106.332 17.5843 106.315 17.9061 106.315 18.1975V18.7272L106.066 18.8389C105.928 18.9004 105.795 18.9376 105.769 18.9215C105.743 18.9055 105.722 18.7103 105.722 18.4877C105.722 18.1963 105.747 18.0618 105.813 18.0074C105.863 17.9658 105.989 17.7889 106.094 17.6143C106.307 17.2572 106.408 17.206 106.352 17.4823ZM105.261 17.6498C105.422 17.8114 105.537 17.9717 105.516 18.0062C105.493 18.0431 105.412 17.9894 105.318 17.8758C105.231 17.7695 105.079 17.6096 104.981 17.5203C104.877 17.4266 104.837 17.3576 104.884 17.3571C104.93 17.3566 105.099 17.4883 105.261 17.6498ZM102.148 17.6054C102.263 17.7202 102.234 17.7541 101.99 17.7868C101.864 17.8038 101.576 17.9074 101.352 18.0173C101.127 18.127 100.924 18.2257 100.899 18.2366C100.875 18.2475 100.855 18.2159 100.855 18.1664C100.855 18.048 101.13 17.8563 101.552 17.6809C101.942 17.5188 102.048 17.5054 102.148 17.6054ZM105.091 17.8162C105.242 17.9713 105.366 18.136 105.366 18.1822C105.366 18.2284 105.359 18.2545 105.351 18.2401C105.343 18.2258 105.19 18.0611 105.011 17.8741C104.833 17.6872 104.716 17.5342 104.752 17.5342C104.788 17.5342 104.941 17.6611 105.091 17.8162ZM105.027 18.0538C105.151 18.2003 105.236 18.3367 105.216 18.3567C105.196 18.3767 105.134 18.3364 105.08 18.267C105.025 18.1976 104.888 18.0279 104.776 17.8898C104.509 17.5598 104.734 17.7069 105.027 18.0538ZM104.792 18.1149C104.944 18.2874 105.067 18.4744 105.066 18.5304C105.063 18.6097 105.04 18.5994 104.962 18.4839C104.907 18.4023 104.741 18.2054 104.594 18.0464C104.447 17.8873 104.369 17.7671 104.421 17.7793C104.472 17.7914 104.639 17.9425 104.792 18.1149ZM102.356 18.1723C102.406 18.2947 102.502 18.5237 102.57 18.6811L102.694 18.9673L102.858 18.8548C102.947 18.793 103.181 18.6537 103.377 18.5452C103.573 18.4367 103.792 18.3098 103.863 18.263C103.984 18.1841 104.012 18.1957 104.264 18.4276C104.413 18.5648 104.535 18.7092 104.535 18.7485C104.535 18.8687 103.701 19.632 103.21 19.9619C102.614 20.3623 102.44 20.3919 102.144 20.1439C101.897 19.9376 101.585 19.4968 101.255 18.89C101.057 18.5237 101.048 18.4885 101.141 18.4075C101.331 18.2404 101.968 17.9672 102.198 17.9537C102.236 17.9515 102.307 18.0499 102.356 18.1723ZM104.426 18.0639C104.635 18.2282 104.905 18.6365 104.881 18.7534C104.867 18.8229 104.789 18.753 104.624 18.5231C104.493 18.3416 104.326 18.1605 104.253 18.1207C104.179 18.0809 104.119 18.0262 104.119 17.999C104.119 17.9127 104.276 17.9459 104.426 18.0639ZM105.282 19.9784C105.529 20.4653 105.604 20.7149 105.527 20.792C105.415 20.9033 105.321 20.8663 105.28 20.6949C105.258 20.6051 105.16 20.3756 105.061 20.1848C104.963 19.994 104.897 19.8003 104.914 19.7544C104.979 19.5865 105.13 19.6786 105.282 19.9784ZM104.522 19.8484C104.716 19.9365 104.803 20.024 104.891 20.2181C104.955 20.3579 105.007 20.5053 105.008 20.5455C105.01 20.6375 104.509 20.8946 104.225 20.948C104.057 20.9795 103.942 20.9538 103.694 20.8294C103.127 20.5452 103.044 20.3833 103.466 20.3833C103.783 20.3833 103.824 20.2758 103.515 20.2533L103.265 20.2349L103.529 20.0607C104.094 19.6874 104.144 19.6768 104.522 19.8484ZM101.657 20.0123C101.85 20.2315 101.84 20.2699 101.611 20.1969C101.505 20.1631 101.384 20.1251 101.343 20.1124C101.282 20.0937 101.282 20.0661 101.342 19.9692C101.441 19.8113 101.485 19.8174 101.657 20.0123ZM101.64 20.3749C102.429 20.5768 102.636 20.6207 102.796 20.6207C102.917 20.6207 102.939 20.6374 102.887 20.6897C102.842 20.7347 102.442 20.7685 101.733 20.7871C100.522 20.8188 100.586 20.8486 100.967 20.4278C101.142 20.2339 101.102 20.2371 101.64 20.3749ZM103.413 21.0194C103.507 21.0753 103.584 21.1355 103.583 21.1529C103.583 21.1704 103.473 21.2648 103.34 21.3627C102.742 21.8013 102.174 22.6352 101.473 24.1022C100.991 25.1107 100.617 25.9878 100.271 26.9156C100.143 27.2601 99.9861 27.6439 99.9223 27.7683L99.8062 27.9946L99.6489 27.4387C99.2454 26.0131 99.1354 24.4075 99.3729 23.4105C99.4918 22.9114 99.9087 22.0722 100.427 21.2901L100.632 20.9801L101.352 21.0123C101.747 21.0299 102.232 21.0191 102.427 20.9882C102.98 20.901 103.225 20.9088 103.413 21.0194ZM102.368 21.5704C102.27 21.6353 102.217 21.6884 102.249 21.6884C102.282 21.6884 102.389 21.6353 102.487 21.5704C102.585 21.5056 102.638 21.4525 102.606 21.4525C102.573 21.4525 102.466 21.5056 102.368 21.5704Z" fill="black"/>
<path d="M46.9467 23.5192C46.6649 23.801 46.1516 23.2173 46.0711 23.0009C45.9151 22.5732 45.8296 21.9392 46.1969 21.587C46.2825 21.5014 46.5642 21.4813 46.8561 21.4863C46.9769 21.6625 47.0775 21.8537 47.1479 22.06C47.319 22.538 47.3391 23.1267 46.9467 23.5192ZM41.7689 21.7228C42.0909 22.3367 42.0104 22.699 41.5324 23.0512C41.0594 22.699 40.9789 22.3367 41.3009 21.7228C41.3664 21.597 41.4469 21.4712 41.5324 21.3505C41.623 21.4712 41.7035 21.597 41.7689 21.7228ZM36.8729 21.587C37.2352 21.9392 37.1497 22.5732 36.9987 23.0009C36.9182 23.2173 36.405 23.801 36.1232 23.5192C35.7307 23.1267 35.7458 22.538 35.9219 22.06C35.9924 21.8537 36.093 21.6625 36.2087 21.4863C36.5056 21.4813 36.7874 21.5014 36.8729 21.587ZM57.3625 20.6561C56.7789 19.5742 55.4806 19.2975 54.3535 19.5944C53.4578 19.8309 52.2854 20.4095 52.1445 21.436C52.0238 22.3166 52.6729 22.9607 53.5384 22.9607C53.9258 22.9657 54.3284 22.8399 54.6152 22.5732C54.9171 22.2965 55.2089 21.6071 55.0932 21.2096C54.9775 20.8272 54.5548 20.7215 54.2076 20.8926C53.9459 21.0234 53.7447 21.4008 53.8302 21.7329C53.8956 21.9845 54.2629 22.0851 54.3183 22.3317C54.4038 22.7493 53.9258 22.7191 53.639 22.6185C53.2314 22.4726 52.844 22.1556 52.7484 21.7128C52.3609 19.8862 54.7862 19.5843 55.9989 20.4498C57.0858 21.2197 57.2166 22.4525 56.5675 23.5343C55.6769 25.0187 53.5182 24.5558 52.2703 23.5745C51.2891 22.7896 50.7054 21.8436 49.4877 21.3958C48.8638 21.1643 48.104 21.1492 47.4146 21.1643C46.7454 20.2384 45.4975 19.6799 44.3905 19.7755C43.364 19.8661 42.3576 20.3491 41.5727 21.0133C41.5576 21.0234 41.5475 21.0385 41.5324 21.0486C41.5223 21.0385 41.5073 21.0234 41.4972 21.0133C40.7122 20.3491 39.7008 19.8661 38.6794 19.7755C37.5724 19.6799 36.3245 20.2384 35.6552 21.1643C34.9659 21.1492 34.2061 21.1643 33.5771 21.3958C32.3644 21.8436 31.7807 22.7896 30.7945 23.5745C29.5516 24.5558 27.393 25.0187 26.5023 23.5343C25.8482 22.4525 25.9841 21.2197 27.0709 20.4498C28.2836 19.5843 30.7089 19.8862 30.3215 21.7128C30.2259 22.1556 29.8384 22.4726 29.4258 22.6185C29.144 22.7191 28.666 22.7493 28.7516 22.3317C28.8069 22.0851 29.1742 21.9845 29.2397 21.7329C29.3252 21.4008 29.1239 21.0234 28.8623 20.8926C28.5151 20.7215 28.0874 20.8272 27.9767 21.2096C27.8609 21.6071 28.1528 22.2965 28.4547 22.5732C28.7415 22.8399 29.1441 22.9657 29.5315 22.9607C30.397 22.9607 31.0461 22.3166 30.9253 21.436C30.7844 20.4095 29.607 19.8309 28.7163 19.5944C27.5892 19.2975 26.291 19.5742 25.7073 20.6561C25.1538 21.6826 25.6268 23.2123 26.4772 23.9318C27.3326 24.6564 28.4044 25.0539 29.5265 24.9734C30.8398 24.8778 31.7354 23.8312 32.621 22.9808C33.4312 22.2009 34.352 21.5467 35.4137 21.5669C35.3483 21.7027 35.2879 21.8486 35.2477 21.9946C35.0162 22.8449 35.6401 23.4236 36.3345 23.7456C37.2201 24.1582 37.7233 23.3884 37.7133 22.543C37.7032 21.8637 36.9786 21.431 36.3798 21.2649C37.2252 20.2787 38.7699 19.9214 39.9725 20.2284C40.5109 20.3642 41.0242 20.7316 41.3965 21.1794C40.6569 21.9241 40.4254 23.016 41.5123 23.7557C41.5224 23.7607 41.5274 23.7658 41.5324 23.7607C41.5425 23.7658 41.5475 23.7607 41.5576 23.7557C42.6394 23.016 42.413 21.9241 41.6733 21.1794C42.0457 20.7316 42.5589 20.3642 43.0973 20.2284C44.2949 19.9214 45.8447 20.2787 46.685 21.2649C46.0862 21.431 45.3667 21.8637 45.3566 22.543C45.3415 23.3884 45.8447 24.1582 46.7353 23.7456C47.4297 23.4236 48.0537 22.8449 47.8172 21.9946C47.7769 21.8486 47.7216 21.7027 47.6562 21.5669C48.7128 21.5467 49.6387 22.2009 50.4488 22.9808C51.3344 23.8312 52.2301 24.8778 53.5434 24.9734C54.6605 25.0539 55.7373 24.6564 56.5876 23.9318C57.4431 23.2123 57.916 21.6826 57.3625 20.6561Z" fill="black"/>
<path d="M24.9881 21.7205L18.648 21.5695L24.9931 21.3783C25.0233 21.1871 25.0937 21.011 25.2095 20.8651L0 21.6249L25.1793 22.2337C25.0736 22.0828 25.0082 21.9067 24.9881 21.7205Z" fill="black"/>
<path d="M58.2157 21.7191L64.5609 21.5681L58.2157 21.3769C58.1855 21.1857 58.1101 21.0096 57.9994 20.8637L83.2088 21.6235L58.0245 22.2323C58.1302 22.0814 58.1956 21.9052 58.2157 21.7191Z" fill="black"/>
<path d="M64.6571 69.9717H62.7852L62.5034 70.8573H61.2354L63.0268 65.8858H64.4357L66.227 70.8573H64.9389L64.6571 69.9717ZM64.335 69.0458L63.7312 67.2142L63.1073 69.0458H64.335Z" fill="black"/>
<path d="M75.1799 65.8858L73.8716 70.8573H72.4225L71.6174 67.5765L70.7921 70.8573H69.3228L68.0749 65.8858H69.3631L70.0877 69.5088L70.9733 65.8858H72.3017L73.147 69.5088L73.8716 65.8858H75.1799Z" fill="black"/>
<path d="M77.0377 66.852V67.8583H78.6681V68.8043H77.0377V69.8912H78.8693V70.8573H75.8301V65.8858H78.8693V66.852H77.0377Z" fill="black"/>
<path d="M81.5449 65.8858C82.0682 65.8858 82.5211 65.9965 82.9136 66.2079C83.3161 66.4092 83.6231 66.701 83.8394 67.0734C84.0508 67.4507 84.1615 67.8785 84.1615 68.3615C84.1615 68.8597 84.0508 69.2974 83.8394 69.6698C83.6231 70.0472 83.3161 70.344 82.9136 70.5554C82.5211 70.7567 82.0682 70.8573 81.5449 70.8573H79.6932V65.8858H81.5449ZM81.4845 69.8107C81.9374 69.8107 82.2947 69.6899 82.5513 69.4484C82.8029 69.1968 82.9337 68.8345 82.9337 68.3615C82.9337 67.9086 82.8029 67.5514 82.5513 67.2948C82.2947 67.0432 81.9374 66.9123 81.4845 66.9123H80.9008V69.8107H81.4845Z" fill="black"/>
<path d="M87.9172 67.8565V68.8629H84.7975V67.8565H87.9172Z" fill="black"/>
<path d="M92.592 65.8858V66.852H91.2636V70.8573H90.056V66.852H88.7276V65.8858H92.592Z" fill="black"/>
<path d="M94.4428 66.852V67.8583H96.0731V68.8043H94.4428V69.8912H96.2744V70.8573H93.2351V65.8858H96.2744V66.852H94.4428Z" fill="black"/>
<path d="M96.9037 68.3589C96.9037 67.8658 97.0044 67.428 97.2057 67.0506C97.417 66.6632 97.7139 66.3613 98.0912 66.1449C98.4787 65.9336 98.9165 65.8229 99.3995 65.8229C99.9883 65.8229 100.491 65.9839 100.909 66.3059C101.337 66.6179 101.619 67.0406 101.754 67.574H100.426C100.33 67.3626 100.19 67.2016 100.003 67.0909C99.8121 66.9852 99.6058 66.9299 99.3794 66.9299C99.002 66.9299 98.7001 67.0657 98.4737 67.3324C98.2422 67.589 98.1315 67.9312 98.1315 68.3589C98.1315 68.7917 98.2422 69.1389 98.4737 69.4055C98.7001 69.6622 99.002 69.788 99.3794 69.788C99.6058 69.788 99.8121 69.7376 100.003 69.6269C100.19 69.5213 100.33 69.3653 100.426 69.164H101.754C101.619 69.7024 101.337 70.1251 100.909 70.432C100.491 70.744 99.9883 70.895 99.3995 70.895C98.9165 70.895 98.4787 70.7893 98.0912 70.5729C97.7139 70.3616 97.417 70.0647 97.2057 69.6873C97.0044 69.2999 96.9037 68.8571 96.9037 68.3589Z" fill="black"/>
<path d="M106.838 65.8858V70.8573H105.631V68.8043H103.739V70.8573H102.531V65.8858H103.739V67.8382H105.631V65.8858H106.838Z" fill="black"/>
<path d="M113.052 67.4759C113.052 67.7728 112.982 68.0395 112.851 68.281C112.715 68.5125 112.514 68.6986 112.247 68.8446C111.976 68.9955 111.633 69.066 111.221 69.066H110.476V70.8573H109.269V65.8858H111.221C111.623 65.8858 111.956 65.9563 112.227 66.0871C112.509 66.223 112.715 66.4092 112.851 66.6507C112.982 66.8922 113.052 67.169 113.052 67.4759ZM111.14 68.0998C111.367 68.0998 111.533 68.0495 111.644 67.9388C111.764 67.8332 111.825 67.6772 111.825 67.4759C111.825 67.2897 111.764 67.1438 111.644 67.0331C111.533 66.9123 111.367 66.852 111.14 66.852H110.476V68.0998H111.14Z" fill="black"/>
<path d="M114.936 69.9314H116.526V70.8573H113.728V65.8858H114.936V69.9314Z" fill="black"/>
<path d="M120.232 69.9717H118.36L118.078 70.8573H116.81L118.601 65.8858H120.01L121.801 70.8573H120.513L120.232 69.9717ZM119.909 69.0458L119.306 67.2142L118.682 69.0458H119.909Z" fill="black"/>
<path d="M125.973 65.8858V66.852H124.645V70.8573H123.437V66.852H122.109V65.8858H125.973Z" fill="black"/>
<path d="M129.857 65.8858V66.852H127.824V67.8986H129.333V68.8446H127.824V70.8573H126.616V65.8858H129.857Z" fill="black"/>
<path d="M132.863 70.8927C132.39 70.8927 131.963 70.7871 131.575 70.5707C131.183 70.3594 130.876 70.0575 130.649 69.665C130.418 69.2775 130.307 68.8398 130.307 68.3567C130.307 67.8636 130.418 67.4258 130.649 67.0484C130.876 66.661 131.183 66.3591 131.575 66.1427C131.963 65.9163 132.39 65.8005 132.863 65.8005C133.331 65.8005 133.759 65.9163 134.151 66.1427C134.539 66.3591 134.841 66.661 135.057 67.0484C135.284 67.4258 135.399 67.8636 135.399 68.3567C135.399 68.8398 135.284 69.2775 135.057 69.665C134.826 70.0575 134.519 70.3594 134.131 70.5707C133.754 70.7871 133.331 70.8927 132.863 70.8927ZM132.863 69.8059C133.251 69.8059 133.568 69.675 133.809 69.4033C134.051 69.1366 134.172 68.7894 134.172 68.3567C134.172 67.9139 134.051 67.5667 133.809 67.3101C133.568 67.0434 133.251 66.9075 132.863 66.9075C132.461 66.9075 132.139 67.0434 131.897 67.3101C131.656 67.5667 131.535 67.9139 131.535 68.3567C131.535 68.7894 131.656 69.1366 131.897 69.4033C132.139 69.675 132.461 69.8059 132.863 69.8059Z" fill="black"/>
<path d="M138.652 70.8573L137.606 68.9855H137.324V70.8573H136.116V65.8858H138.149C138.537 65.8858 138.864 65.9563 139.135 66.0871C139.417 66.223 139.623 66.4092 139.759 66.6507C139.905 66.8922 139.981 67.1639 139.981 67.4558C139.981 67.7778 139.885 68.0747 139.699 68.3414C139.508 68.598 139.236 68.7791 138.874 68.8848L140.021 70.8573H138.652ZM137.324 68.12H138.069C138.295 68.12 138.461 68.0697 138.572 67.959C138.677 67.8533 138.733 67.6973 138.733 67.496C138.733 67.3099 138.677 67.1639 138.572 67.0532C138.461 66.9476 138.295 66.8922 138.069 66.8922H137.324V68.12Z" fill="black"/>
<path d="M146.406 65.8858V70.8573H145.178V67.8784L144.071 70.8573H143.105L141.978 67.8583V70.8573H140.771V65.8858H142.2L143.588 69.3276L144.977 65.8858H146.406Z" fill="black"/>
<path d="M172.133 23.4739C171.851 23.7557 171.338 23.172 171.257 22.9556C171.101 22.5279 171.016 21.8939 171.383 21.5417C171.469 21.4561 171.751 21.436 172.042 21.4411C172.163 21.6172 172.264 21.8084 172.334 22.0147C172.505 22.4927 172.525 23.0814 172.133 23.4739ZM166.955 21.6775C167.277 22.2914 167.197 22.6537 166.719 23.0059C166.246 22.6537 166.165 22.2914 166.487 21.6775C166.553 21.5518 166.633 21.426 166.719 21.3052C166.809 21.426 166.89 21.5518 166.955 21.6775ZM162.059 21.5417C162.422 21.8939 162.336 22.5279 162.185 22.9556C162.104 23.172 161.591 23.7557 161.309 23.4739C160.917 23.0814 160.932 22.4927 161.108 22.0147C161.179 21.8084 161.279 21.6172 161.395 21.4411C161.692 21.436 161.974 21.4561 162.059 21.5417ZM182.549 20.6108C181.965 19.529 180.667 19.2522 179.54 19.5491C178.644 19.7856 177.472 20.3642 177.331 21.3907C177.21 22.2713 177.859 22.9154 178.725 22.9154C179.112 22.9204 179.515 22.7946 179.801 22.5279C180.103 22.2512 180.395 21.5618 180.279 21.1643C180.164 20.7819 179.741 20.6762 179.394 20.8473C179.132 20.9781 178.931 21.3555 179.016 21.6876C179.082 21.9392 179.449 22.0398 179.505 22.2864C179.59 22.704 179.112 22.6738 178.825 22.5732C178.418 22.4273 178.03 22.1103 177.935 21.6675C177.547 19.8409 179.973 19.539 181.185 20.4045C182.272 21.1744 182.403 22.4072 181.754 23.489C180.863 24.9734 178.704 24.5105 177.457 23.5293C176.475 22.7443 175.892 21.7983 174.674 21.3505C174.05 21.119 173.29 21.1039 172.601 21.119C171.932 20.1932 170.684 19.6346 169.577 19.7302C168.55 19.8208 167.544 20.3039 166.759 20.9681C166.744 20.9781 166.734 20.9932 166.719 21.0033C166.709 20.9932 166.694 20.9781 166.683 20.9681C165.898 20.3039 164.887 19.8208 163.866 19.7302C162.759 19.6346 161.511 20.1932 160.842 21.119C160.152 21.1039 159.392 21.119 158.763 21.3505C157.551 21.7983 156.967 22.7443 155.981 23.5293C154.738 24.5105 152.579 24.9734 151.689 23.489C151.034 22.4072 151.17 21.1744 152.257 20.4045C153.47 19.539 155.895 19.8409 155.508 21.6675C155.412 22.1103 155.025 22.4273 154.612 22.5732C154.33 22.6738 153.852 22.704 153.938 22.2864C153.993 22.0398 154.361 21.9392 154.426 21.6876C154.511 21.3555 154.31 20.9781 154.049 20.8473C153.701 20.6762 153.274 20.7819 153.163 21.1643C153.047 21.5618 153.339 22.2512 153.641 22.5279C153.928 22.7946 154.33 22.9204 154.718 22.9154C155.583 22.9154 156.232 22.2713 156.112 21.3907C155.971 20.3642 154.793 19.7856 153.903 19.5491C152.775 19.2522 151.477 19.529 150.894 20.6108C150.34 21.6373 150.813 23.167 151.663 23.8865C152.519 24.6111 153.591 25.0086 154.713 24.9281C156.026 24.8325 156.922 23.7859 157.807 22.9355C158.617 22.1556 159.538 21.5014 160.6 21.5216C160.535 21.6574 160.474 21.8033 160.434 21.9493C160.202 22.7996 160.826 23.3783 161.521 23.7003C162.406 24.1129 162.91 23.3431 162.9 22.4977C162.889 21.8184 162.165 21.3857 161.566 21.2196C162.411 20.2334 163.956 19.8762 165.159 20.1831C165.697 20.319 166.21 20.6863 166.583 21.1341C165.843 21.8788 165.612 22.9707 166.699 23.7104C166.709 23.7154 166.714 23.7205 166.719 23.7154C166.729 23.7205 166.734 23.7154 166.744 23.7104C167.826 22.9707 167.599 21.8788 166.86 21.1341C167.232 20.6863 167.745 20.319 168.284 20.1831C169.481 19.8762 171.031 20.2334 171.871 21.2196C171.272 21.3857 170.553 21.8184 170.543 22.4977C170.528 23.3431 171.031 24.1129 171.922 23.7003C172.616 23.3783 173.24 22.7996 173.003 21.9493C172.963 21.8033 172.908 21.6574 172.842 21.5216C173.899 21.5014 174.825 22.1556 175.635 22.9355C176.521 23.7859 177.416 24.8325 178.73 24.9281C179.847 25.0086 180.924 24.6111 181.774 23.8865C182.629 23.167 183.102 21.6373 182.549 20.6108Z" fill="black"/>
<path d="M150.163 21.7785L143.924 21.6326L150.163 21.4414C150.193 21.2603 150.264 21.0842 150.38 20.9382L125.588 21.688L150.349 22.2817C150.244 22.1358 150.183 21.9597 150.163 21.7785Z" fill="black"/>
<path d="M183.131 21.6768L189.366 21.5309L183.126 21.3397C183.096 21.1586 183.025 20.9824 182.915 20.8365L207.702 21.5863L182.94 22.18C183.046 22.0341 183.106 21.858 183.131 21.6768Z" fill="black"/>
</svg>
