<svg width="66" height="68" viewBox="0 0 66 68" fill="none" xmlns="http://www.w3.org/2000/svg">
<path d="M31.1431 23.0774C31.1431 20.9588 30.7405 18.9673 29.9355 17.1029C29.088 15.2386 27.9758 13.6073 26.5987 12.209C25.2216 10.8107 23.5797 9.70904 21.6729 8.90397C19.8086 8.05653 17.8171 7.63281 15.6985 7.63281C13.5799 7.63281 11.5884 8.05653 9.72404 8.90397C7.8173 9.70904 6.16479 10.8107 4.76652 12.209C3.36825 13.6073 2.26657 15.2386 1.46151 17.1029C0.65644 18.9673 0.253906 20.9588 0.253906 23.0774C0.253906 25.2384 0.65644 27.251 1.46151 29.1154C2.26657 30.9798 3.36825 32.6111 4.76652 34.0094C6.16479 35.4076 7.79612 36.5093 9.66048 37.3144C11.5672 38.1194 13.5799 38.522 15.6985 38.522C16.207 38.522 16.7154 38.5008 17.2239 38.4584C17.7323 38.416 18.262 38.3313 18.8128 38.2042C18.3467 40.238 17.7747 42.166 17.0968 43.988C16.4612 45.8099 15.7832 47.5048 15.0629 49.0726C14.3426 50.6404 13.6223 52.081 12.9019 53.3945C12.1816 54.6657 11.5672 55.7674 11.0588 56.6995C10.7622 57.1656 10.5079 57.5999 10.2961 58.0025C10.0842 58.405 9.89353 58.7546 9.72404 59.0512C9.59692 59.3054 9.46981 59.6762 9.34269 60.1635C9.21558 60.6507 9.36388 61.0639 9.7876 61.4028C9.91471 61.5299 10.0524 61.6253 10.2007 61.6888C10.349 61.7524 10.5079 61.7842 10.6774 61.7842C10.974 61.7842 11.3024 61.6888 11.6626 61.4982C12.0227 61.3075 12.3511 61.1062 12.6477 60.8944C13.0714 60.6401 13.6011 60.2906 14.2367 59.8457C14.8722 59.4008 15.6985 58.797 16.7154 58.0343L16.779 57.9707C18.601 56.3606 20.2535 54.6127 21.7365 52.7272C23.2195 50.8416 24.533 48.8607 25.6771 46.7845C26.6093 45.0896 27.4249 43.3206 28.1241 41.4774C28.8232 39.6342 29.4058 37.7381 29.8719 35.789C30.6346 32.6535 31.0477 29.9311 31.1113 27.6218C31.1748 25.3125 31.1854 23.7977 31.1431 23.0774ZM27.5838 35.217C27.0754 37.2932 26.4398 39.3059 25.6771 41.255C24.9144 43.1617 24.0246 44.9943 23.0077 46.7527C21.9907 48.5112 20.8255 50.1743 19.512 51.742C18.2408 53.3098 16.8425 54.7716 15.3171 56.1275C15.0629 56.3394 14.7451 56.583 14.3638 56.8584C13.9824 57.1339 13.5799 57.4199 13.1562 57.7165C13.7494 56.6572 14.4485 55.4072 15.2536 53.9666C16.0163 52.5259 16.8002 50.9158 17.6052 49.1361C18.4103 47.3565 19.1518 45.4286 19.8298 43.3524C20.5501 41.2761 21.1009 39.0728 21.4823 36.7423L21.8 34.7721L19.9569 35.4712C19.2365 35.6831 18.5268 35.8525 17.8277 35.9797C17.1285 36.1068 16.4188 36.1703 15.6985 36.1703C13.9189 36.1703 12.224 35.8314 10.6139 35.1534C9.04609 34.4754 7.669 33.5433 6.48258 32.3569C5.29617 31.1704 4.36399 29.7722 3.68604 28.162C3.00808 26.5943 2.66911 24.8994 2.66911 23.0774C2.66911 21.2978 3.00808 19.6029 3.68604 17.9928C4.36399 16.425 5.29617 15.0479 6.48258 13.8615C7.669 12.6751 9.04609 11.7429 10.6139 11.0649C12.1816 10.387 13.8765 10.048 15.6985 10.048C17.4781 10.048 19.173 10.387 20.7831 11.0649C22.3509 11.7429 23.728 12.6751 24.9144 13.8615C26.1008 15.0479 27.033 16.425 27.7109 17.9928C28.4313 19.5605 28.7914 21.2554 28.7914 23.0774V23.1409V23.2045V23.2681C28.8338 23.9036 28.8232 25.3125 28.7596 27.4947C28.6961 29.6768 28.3041 32.2509 27.5838 35.217ZM65.0195 23.1409C65.0195 20.98 64.6169 18.9673 63.8119 17.1029C63.0068 15.2386 61.9051 13.6073 60.5068 12.209C59.1086 10.8107 57.4772 9.70904 55.6129 8.90397C53.7061 8.0989 51.6935 7.69637 49.5749 7.69637C47.4563 7.69637 45.4648 8.0989 43.6004 8.90397C41.7361 9.70904 40.1047 10.8107 38.7065 12.209C37.3082 13.6073 36.2065 15.2386 35.4015 17.1029C34.5964 18.9673 34.1938 20.9588 34.1938 23.0774C34.1938 25.2384 34.5964 27.251 35.4015 29.1154C36.2065 30.9798 37.3082 32.6111 38.7065 34.0094C40.1047 35.4076 41.7361 36.5093 43.6004 37.3144C45.4648 38.1194 47.4563 38.522 49.5749 38.522C50.0833 38.522 50.6024 38.5008 51.132 38.4584C51.6617 38.416 52.1807 38.3313 52.6892 38.2042C52.2231 40.238 51.6723 42.166 51.0367 43.988C50.3588 45.8099 49.6596 47.5048 48.9393 49.0726C48.219 50.6404 47.4986 52.0598 46.7783 53.331C46.1004 54.6445 45.486 55.7674 44.9351 56.6995C44.6385 57.1656 44.3843 57.5894 44.1724 57.9707C43.9606 58.3521 43.7911 58.691 43.664 58.9876C43.5369 59.2842 43.3992 59.6762 43.2509 60.1635C43.1026 60.6507 43.2403 61.0639 43.664 61.4028C43.7911 61.5299 43.9288 61.6253 44.0771 61.6888C44.2254 61.7524 44.3843 61.7842 44.5538 61.7842C44.8928 61.7842 45.2317 61.6888 45.5707 61.4982C45.9097 61.3075 46.2487 61.1062 46.5876 60.8944C47.0114 60.6401 47.5304 60.2906 48.1448 59.8457C48.7592 59.4008 49.5961 58.797 50.6554 58.0343L50.7189 57.9707C52.4985 56.3606 54.1299 54.6127 55.6129 52.7272C57.0959 50.8416 58.4094 48.8607 59.5535 46.7845C60.4857 45.0896 61.3013 43.3206 62.0005 41.4774C62.6996 39.6342 63.2822 37.7381 63.7483 35.789C64.511 32.6535 64.9241 29.9311 64.9877 27.6218C65.0512 25.3125 65.0618 23.8189 65.0195 23.1409ZM61.4602 35.217C60.9941 37.3356 60.3585 39.3482 59.5535 41.255C58.7908 43.1617 57.901 44.9943 56.884 46.7527C55.8671 48.5112 54.7231 50.1743 53.4519 51.742C52.1384 53.3098 50.7189 54.7928 49.1935 56.1911C48.9393 56.3606 48.6215 56.583 48.2402 56.8584C47.8588 57.1339 47.4563 57.4199 47.0326 57.7165C47.6258 56.6995 48.3249 55.4496 49.13 53.9666C49.935 52.5259 50.7295 50.9158 51.5134 49.1361C52.2973 47.3565 53.0282 45.4286 53.7061 43.3524C54.4265 41.2761 54.9773 39.094 55.3586 36.8059L55.74 34.8356L53.8333 35.4712C53.1553 35.6831 52.4562 35.8525 51.7358 35.9797C51.0155 36.1068 50.2952 36.1703 49.5749 36.1703C47.7952 36.1703 46.1216 35.8314 44.5538 35.1534C42.9437 34.4754 41.5454 33.5433 40.359 32.3569C39.1726 31.1704 38.2404 29.7722 37.5624 28.162C36.8845 26.5943 36.5455 24.8994 36.5455 23.0774C36.5455 21.2978 36.8845 19.6029 37.5624 17.9928C38.2404 16.425 39.1726 15.0479 40.359 13.8615C41.5454 12.6751 42.9225 11.7429 44.4902 11.0649C46.1004 10.387 47.7952 10.048 49.5749 10.048C51.3969 10.048 53.0917 10.387 54.6595 11.0649C56.2696 11.7429 57.6679 12.6751 58.8543 13.8615C60.0407 15.0479 60.9729 16.425 61.6509 17.9928C62.3288 19.6029 62.6678 21.2978 62.6678 23.0774V23.2045V23.2681C62.7102 23.9036 62.6996 25.3125 62.636 27.4947C62.5725 29.6768 62.1805 32.2509 61.4602 35.217Z" fill="#863AC1"/>
</svg>
