<svg width="79" height="79" viewBox="0 0 79 79" fill="none" xmlns="http://www.w3.org/2000/svg">
<rect width="78.2203" height="78.2203" rx="39.1102" fill="#863AC1"/>
<path d="M55.9796 51.457H34.1459C33.3185 51.457 32.614 51.1662 32.0323 50.5845C31.4506 50.0027 31.1597 49.2982 31.1597 48.4709C31.1597 48.4192 31.2373 47.915 31.3924 46.9584C31.5475 46.0018 32.0905 44.9677 33.0212 43.8559C33.5383 43.2096 34.1459 42.6343 34.8439 42.1302C35.542 41.626 36.3305 41.193 37.2096 40.831C38.2954 40.3915 39.4912 40.0618 40.7968 39.8421C42.1024 39.6223 43.5309 39.5124 45.0821 39.5124C46.6075 39.5124 48.0295 39.6223 49.3481 39.8421C50.6666 40.0618 51.8559 40.3915 52.9159 40.831C53.795 41.193 54.59 41.626 55.301 42.1302C56.0119 42.6343 56.626 43.2096 57.1431 43.8559C58.048 44.9677 58.578 46.0018 58.7331 46.9584C58.8882 47.915 58.9658 48.4192 58.9658 48.4709C58.9658 49.2982 58.6749 50.0027 58.0932 50.5845C57.5115 51.1662 56.807 51.457 55.9796 51.457ZM33.1375 48.4709C33.1375 48.7294 33.2345 48.9556 33.4284 49.1496C33.6223 49.3435 33.8615 49.4404 34.1459 49.4404H55.9796C56.264 49.4404 56.5032 49.3435 56.6971 49.1496C56.891 48.9556 56.9879 48.7294 56.9879 48.4709C56.9879 48.445 56.9168 48.0701 56.7746 47.3462C56.6324 46.6223 56.2123 45.8467 55.5143 45.0194C54.5577 43.8818 53.1874 43.0157 51.4035 42.421C49.6195 41.8264 47.5124 41.5291 45.0821 41.5291C42.626 41.5291 40.5124 41.8264 38.7414 42.421C36.9704 43.0157 35.5937 43.8818 34.6112 45.0194C33.9132 45.8467 33.493 46.6223 33.3508 47.3462C33.2086 48.0701 33.1375 48.445 33.1375 48.4709ZM45.0821 37.5346C43.9704 37.5346 42.9362 37.3278 41.9796 36.9141C41.023 36.5004 40.1828 35.9317 39.4589 35.2077C38.735 34.4838 38.1662 33.6436 37.7525 32.687C37.3388 31.7304 37.132 30.6962 37.132 29.5845C37.132 28.4986 37.3388 27.4774 37.7525 26.5208C38.1662 25.5383 38.735 24.6916 39.4589 23.9806C40.1828 23.2696 41.023 22.7073 41.9796 22.2936C42.9362 21.88 43.9704 21.6731 45.0821 21.6731C46.168 21.6731 47.1892 21.88 48.1458 22.2936C49.1283 22.7073 49.975 23.2696 50.686 23.9806C51.397 24.6916 51.9593 25.5383 52.373 26.5208C52.7866 27.4774 52.9935 28.4986 52.9935 29.5845C52.9935 30.6962 52.7866 31.7304 52.373 32.687C51.9593 33.6436 51.397 34.4838 50.686 35.2077C49.975 35.9317 49.1283 36.5004 48.1458 36.9141C47.1892 37.3278 46.168 37.5346 45.0821 37.5346ZM45.0821 23.651C43.4275 23.651 42.0184 24.2327 40.855 25.3961C39.6916 26.5596 39.1098 27.9557 39.1098 29.5845C39.1098 31.2391 39.6916 32.6482 40.855 33.8116C42.0184 34.9751 43.4275 35.5568 45.0821 35.5568C46.7109 35.5568 48.1071 34.9751 49.2705 33.8116C50.4339 32.6482 51.0156 31.2391 51.0156 29.5845C51.0156 27.9557 50.4339 26.5596 49.2705 25.3961C48.1071 24.2327 46.7109 23.651 45.0821 23.651ZM28.1736 51.457H22.2401C21.4127 51.457 20.7082 51.1662 20.1265 50.5845C19.5448 50.0027 19.2539 49.2982 19.2539 48.4709C19.2539 48.4192 19.3121 48.0249 19.4284 47.2881C19.5448 46.5512 19.9261 45.7562 20.5725 44.903C20.9344 44.3859 21.3739 43.9335 21.891 43.5457C22.4081 43.1579 22.9769 42.8218 23.5974 42.5374C24.373 42.2013 25.2262 41.9492 26.1569 41.7811C27.0877 41.6131 28.096 41.5291 29.1819 41.5291H29.7248H30.229C30.5134 41.5549 30.746 41.6713 30.927 41.8781C31.108 42.0849 31.1856 42.3176 31.1597 42.5762C31.1597 42.8605 31.0563 43.0932 30.8495 43.2742C30.6426 43.4552 30.397 43.5328 30.1126 43.5069H29.6472H29.1819C25.3038 43.5069 23.0092 44.3019 22.2982 45.8919C21.5872 47.482 21.2317 48.3416 21.2317 48.4709C21.2317 48.7294 21.3287 48.9556 21.5226 49.1496C21.7165 49.3435 21.9557 49.4404 22.2401 49.4404H28.1736C28.458 49.4404 28.6971 49.5374 28.891 49.7313C29.0849 49.9252 29.1819 50.1643 29.1819 50.4487C29.1819 50.7331 29.0849 50.9723 28.891 51.1662C28.6971 51.3601 28.458 51.457 28.1736 51.457ZM33.409 37.7673C33.409 37.7673 33.1182 38.0582 32.5364 38.6399C31.9547 39.2216 30.8365 39.5124 29.1819 39.5124C27.5272 39.5124 26.1182 38.9307 24.9547 37.7673C23.7913 36.6039 23.2096 35.2077 23.2096 33.5789C23.2096 31.9243 23.7913 30.5152 24.9547 29.3518C26.1182 28.1884 27.5272 27.6066 29.1819 27.6066C30.8365 27.6066 32.2456 28.1884 33.409 29.3518C34.5724 30.5152 35.1542 31.9243 35.1542 33.5789C35.1542 35.2077 34.5724 36.6039 33.409 37.7673ZM31.9741 30.7479C31.9741 30.7479 31.7802 30.554 31.3924 30.1662C31.0046 29.7784 30.2677 29.5845 29.1819 29.5845C28.096 29.5845 27.1653 29.9723 26.3896 30.7479C25.614 31.5235 25.2262 32.4672 25.2262 33.5789C25.2262 34.6648 25.614 35.5956 26.3896 36.3712C27.1653 37.1468 28.096 37.5346 29.1819 37.5346C30.2677 37.5346 31.1985 37.1468 31.9741 36.3712C32.7497 35.5956 33.1375 34.6648 33.1375 33.5789C33.1375 32.4672 32.7497 31.5235 31.9741 30.7479Z" fill="white"/>
</svg>
