<svg width="79" height="79" viewBox="0 0 79 79" fill="none" xmlns="http://www.w3.org/2000/svg">
<rect x="0.601695" y="0.601695" width="77.0169" height="77.0169" rx="38.5085" fill="white"/>
<rect x="0.601695" y="0.601695" width="77.0169" height="77.0169" rx="38.5085" stroke="#E1D7E9" stroke-width="1.20339"/>
<path d="M21.891 52.8977V50.5321L27.9409 43.8617C28.3287 44.172 28.7617 44.3206 29.24 44.3077C29.7183 44.2948 30.1385 44.1203 30.5004 43.7842L35.1929 47.3132C35.2964 47.8303 35.5808 48.2375 36.0461 48.5349C36.5115 48.8322 37.0157 48.9291 37.5586 48.8257C37.9981 48.7223 38.3601 48.4961 38.6445 48.147C38.9289 47.798 39.084 47.4037 39.1098 46.9642C39.1098 46.8867 39.1034 46.8156 39.0904 46.7509C39.0775 46.6863 39.0711 46.6281 39.0711 46.5764L44.2677 40.798C44.397 40.8756 44.5263 40.9273 44.6555 40.9531C44.7848 40.979 44.927 40.9919 45.0821 40.9919C45.3148 40.9919 45.541 40.9531 45.7608 40.8756C45.9806 40.798 46.1809 40.6817 46.3619 40.5265L51.2095 44.8313C51.132 44.9605 51.0803 45.0898 51.0544 45.2191C51.0286 45.3483 51.0156 45.4776 51.0156 45.6069C51.0156 46.1757 51.2095 46.654 51.5974 47.0418C51.9852 47.4296 52.4505 47.6235 52.9935 47.6235C53.5623 47.6235 54.0406 47.4296 54.4284 47.0418C54.8162 46.654 55.0101 46.1757 55.0101 45.6069C55.0101 45.0639 54.8162 44.5986 54.4284 44.2108C54.0406 43.8229 53.5623 43.629 52.9935 43.629C52.8384 43.629 52.6897 43.6484 52.5475 43.6872C52.4053 43.726 52.2566 43.7842 52.1015 43.8617L47.06 39.3243V39.1692V39.0141C47.06 38.4711 46.8661 38.0058 46.4783 37.618C46.0904 37.2302 45.6251 37.0362 45.0821 37.0362C44.5133 37.0362 44.035 37.2302 43.6472 37.618C43.2594 38.0058 43.0655 38.4711 43.0655 39.0141C43.0655 39.1692 43.0849 39.3179 43.1237 39.4601C43.1625 39.6023 43.2206 39.7509 43.2982 39.9061L38.373 45.413C38.192 45.2578 37.9916 45.1415 37.7719 45.0639C37.5521 44.9864 37.3388 44.9476 37.132 44.9476C36.7959 44.9476 36.4792 45.0316 36.1819 45.1997C35.8845 45.3677 35.6454 45.5939 35.4644 45.8783L31.1597 42.6207V42.4656V42.3105C31.1597 41.7675 30.9658 41.3022 30.578 40.9144C30.1902 40.5265 29.7248 40.3326 29.1819 40.3326C28.6389 40.3326 28.1736 40.5265 27.7858 40.9144C27.3979 41.3022 27.204 41.7675 27.204 42.3105V42.5044L27.2428 42.6595L21.891 48.5542V41.2634L28.2899 35.4462C28.4192 35.5238 28.5614 35.582 28.7165 35.6207C28.8716 35.6595 29.0267 35.6789 29.1819 35.6789C29.7248 35.6789 30.1902 35.485 30.578 35.0972C30.9658 34.7094 31.1597 34.244 31.1597 33.7011V33.5072L31.1209 33.352L36.1237 27.7676H36.3176H36.4727C36.7313 27.7676 36.9833 27.7159 37.229 27.6124C37.4746 27.509 37.6879 27.3539 37.8688 27.1471L43.1819 28.931C43.337 29.4481 43.6537 29.8359 44.132 30.0944C44.6103 30.353 45.108 30.4047 45.6251 30.2496C46.0904 30.1203 46.4589 29.8553 46.7303 29.4545C47.0018 29.0538 47.1117 28.6078 47.06 28.1166L51.6749 25.2468C52.0886 25.6087 52.5669 25.7768 53.1098 25.7509C53.6528 25.7251 54.1181 25.5053 54.5059 25.0917C54.8679 24.678 55.0295 24.1997 54.9907 23.6568C54.9519 23.1138 54.7386 22.6485 54.3508 22.2606C53.9372 21.8987 53.4524 21.7371 52.8965 21.7759C52.3407 21.8147 51.8818 22.028 51.5198 22.4158C51.3647 22.6226 51.2419 22.8424 51.1514 23.075C51.0609 23.3077 51.0156 23.5404 51.0156 23.7731V23.9282V24.0446L46.4007 26.9532C45.987 26.5912 45.5087 26.4231 44.9658 26.449C44.4229 26.4749 43.9575 26.6817 43.5697 27.0695L43.4145 27.3022L43.2594 27.5737L38.4506 25.9448V25.8673V25.7509C38.4506 25.208 38.2567 24.7426 37.8688 24.3548C37.481 23.967 37.0157 23.7731 36.4727 23.7731C35.9298 23.7731 35.4644 23.967 35.0766 24.3548C34.6888 24.7426 34.4949 25.208 34.4949 25.7509C34.469 25.9836 34.5013 26.2099 34.5918 26.4296C34.6823 26.6494 34.8051 26.8497 34.9603 27.0307L30.4229 32.1498C30.2419 32.0206 30.048 31.9171 29.8412 31.8396C29.6343 31.762 29.4146 31.7232 29.1819 31.7232C28.6389 31.7232 28.1736 31.9171 27.7858 32.305C27.3979 32.6928 27.204 33.1581 27.204 33.7011C27.204 33.8562 27.217 33.9984 27.2428 34.1277C27.2687 34.2569 27.3075 34.3862 27.3592 34.5155L21.891 39.4795V19.8174H20.5725V21.136H19.2539V22.4545H20.5725V29.0861H19.2539V30.4047H20.5725V37.0362H19.2539V38.3548H20.5725V44.9476H19.2539V46.2662H20.5725V53.557C20.5725 53.738 20.6371 53.8931 20.7664 54.0224C20.8956 54.1516 21.0508 54.2163 21.2317 54.2163H28.5226V55.5348H29.8412V54.2163H36.4727V55.5348H37.7913V54.2163H44.4229V55.5348H45.7414V54.2163H52.3342V55.5348H53.6528V54.2163H58.9658V52.8977H21.891ZM52.5281 45.1415C52.5281 45.1415 52.5604 45.1092 52.6251 45.0445C52.6897 44.9799 52.8125 44.9476 52.9935 44.9476C53.1745 44.9476 53.3296 45.0122 53.4589 45.1415C53.5881 45.2708 53.6528 45.4259 53.6528 45.6069C53.6528 45.7879 53.5881 45.943 53.4589 46.0722C53.3296 46.2015 53.1745 46.2662 52.9935 46.2662C52.8125 46.2662 52.6574 46.2015 52.5281 46.0722C52.3988 45.943 52.3342 45.7879 52.3342 45.6069C52.3342 45.4259 52.3988 45.2708 52.5281 45.1415ZM44.6168 38.5487C44.6168 38.5487 44.6491 38.5164 44.7137 38.4518C44.7783 38.3871 44.9012 38.3548 45.0821 38.3548C45.2631 38.3548 45.4182 38.4194 45.5475 38.5487C45.6768 38.678 45.7414 38.8331 45.7414 39.0141C45.7414 39.1951 45.6768 39.3502 45.5475 39.4795C45.4182 39.6087 45.2631 39.6734 45.0821 39.6734C44.9012 39.6734 44.746 39.6087 44.6168 39.4795C44.4875 39.3502 44.4229 39.1951 44.4229 39.0141C44.4229 38.8331 44.4875 38.678 44.6168 38.5487ZM36.6666 46.4601C36.6666 46.4601 36.6989 46.4277 36.7636 46.3631C36.8282 46.2985 36.951 46.2662 37.132 46.2662C37.313 46.2662 37.4681 46.3308 37.5974 46.4601C37.7266 46.5893 37.7913 46.7574 37.7913 46.9642C37.7913 47.1452 37.7266 47.3003 37.5974 47.4296C37.4681 47.5589 37.313 47.6235 37.132 47.6235C36.951 47.6235 36.7959 47.5589 36.6666 47.4296C36.5374 47.3003 36.4727 47.1452 36.4727 46.9642C36.4727 46.7574 36.5374 46.5893 36.6666 46.4601ZM28.7165 41.8451C28.7165 41.8451 28.7488 41.8128 28.8135 41.7482C28.8781 41.6835 29.0009 41.6512 29.1819 41.6512C29.3629 41.6512 29.518 41.7158 29.6472 41.8451C29.7765 41.9744 29.8412 42.1295 29.8412 42.3105C29.8412 42.4915 29.7765 42.6466 29.6472 42.7759C29.518 42.9051 29.3629 42.9698 29.1819 42.9698C29.0009 42.9698 28.8458 42.9051 28.7165 42.7759C28.5872 42.6466 28.5226 42.4915 28.5226 42.3105C28.5226 42.1295 28.5872 41.9744 28.7165 41.8451ZM52.5281 23.3077C52.5281 23.3077 52.5604 23.2754 52.6251 23.2108C52.6897 23.1461 52.8125 23.1138 52.9935 23.1138C53.1745 23.1138 53.3296 23.1785 53.4589 23.3077C53.5881 23.437 53.6528 23.5921 53.6528 23.7731C53.6528 23.9541 53.5881 24.1092 53.4589 24.2385C53.3296 24.3678 53.1745 24.4324 52.9935 24.4324C52.8125 24.4324 52.6574 24.3678 52.5281 24.2385C52.3988 24.1092 52.3342 23.9541 52.3342 23.7731C52.3342 23.5921 52.3988 23.437 52.5281 23.3077ZM44.6168 27.9615C44.6168 27.9615 44.6491 27.9291 44.7137 27.8645C44.7783 27.7999 44.9012 27.7676 45.0821 27.7676C45.2631 27.7676 45.4182 27.8322 45.5475 27.9615C45.6768 28.0907 45.7414 28.2459 45.7414 28.4268C45.7414 28.6078 45.6768 28.7629 45.5475 28.8922C45.4182 29.0215 45.2631 29.0861 45.0821 29.0861C44.9012 29.0861 44.746 29.0215 44.6168 28.8922C44.4875 28.7629 44.4229 28.6078 44.4229 28.4268C44.4229 28.2459 44.4875 28.0907 44.6168 27.9615ZM36.0073 25.2856C36.0073 25.2856 36.0397 25.2533 36.1043 25.1886C36.1689 25.124 36.2917 25.0917 36.4727 25.0917C36.6537 25.0917 36.8088 25.1563 36.9381 25.2856C37.0674 25.4148 37.132 25.57 37.132 25.7509C37.132 25.9319 37.0674 26.087 36.9381 26.2163C36.8088 26.3456 36.6537 26.4102 36.4727 26.4102C36.2917 26.4102 36.1366 26.3456 36.0073 26.2163C35.8781 26.087 35.8134 25.9319 35.8134 25.7509C35.8134 25.57 35.8781 25.4148 36.0073 25.2856ZM28.7165 33.2357C28.7165 33.2357 28.7488 33.2034 28.8135 33.1387C28.8781 33.0741 29.0009 33.0418 29.1819 33.0418C29.3629 33.0418 29.518 33.1064 29.6472 33.2357C29.7765 33.365 29.8412 33.5201 29.8412 33.7011C29.8412 33.8821 29.7765 34.0372 29.6472 34.1664C29.518 34.2957 29.3629 34.3604 29.1819 34.3604C29.0009 34.3604 28.8458 34.2957 28.7165 34.1664C28.5872 34.0372 28.5226 33.8821 28.5226 33.7011C28.5226 33.5201 28.5872 33.365 28.7165 33.2357ZM31.819 58.2107H33.1375V59.5293H31.819V58.2107ZM34.4949 58.2107H35.8134V59.5293H34.4949V58.2107ZM37.132 58.2107H38.4506V59.5293H37.132V58.2107ZM39.7691 58.2107H41.0877V59.5293H39.7691V58.2107ZM42.4062 58.2107H43.7248V59.5293H42.4062V58.2107ZM45.0821 58.2107H46.4007V59.5293H45.0821V58.2107Z" fill="#863AC1"/>
</svg>
